<?xml version="1.0" standalone="no"?>
<!DOCTYPE svg PUBLIC "-//W3C//DTD SVG 20010904//EN"
 "http://www.w3.org/TR/2001/REC-SVG-20010904/DTD/svg10.dtd">
<svg version="1.0" xmlns="http://www.w3.org/2000/svg"
 width="1167.000000pt" height="945.000000pt" viewBox="0 0 1167.000000 945.000000"
 preserveAspectRatio="xMidYMid meet">

<g transform="translate(0.000000,945.000000) scale(0.100000,-0.100000)"
fill="#000000" stroke="none">
<path d="M10727 9344 c-4 -4 -7 -20 -7 -35 0 -30 -16 -41 -42 -28 -24 13 -33
-7 -15 -34 14 -22 57 -34 57 -16 0 5 -11 9 -24 9 -13 0 -26 6 -29 14 -4 10 3
13 26 12 30 -1 32 1 35 37 3 29 7 37 23 37 14 0 19 -7 19 -24 0 -14 4 -27 9
-30 4 -3 5 9 2 27 -7 31 -36 48 -54 31z"/>
<path d="M9326 9315 c-9 -13 -16 -31 -16 -38 0 -8 -7 -29 -17 -47 -14 -29 -17
-31 -28 -17 -17 24 -22 21 -29 -15 -10 -57 -13 -63 -27 -60 -20 5 -36 22 -21
22 7 0 12 8 12 18 0 11 -3 13 -8 5 -4 -6 -16 -13 -26 -15 -14 -2 -21 5 -27 25
-7 26 3 38 16 17 3 -5 14 -9 23 -9 15 1 15 2 0 6 -10 2 -18 9 -18 14 0 5 -9 9
-20 9 -17 0 -19 -4 -14 -27 4 -16 11 -32 15 -37 15 -17 10 -33 -12 -39 -15 -4
-19 -11 -14 -25 10 -32 -15 -37 -40 -8 -13 15 -33 26 -47 26 -13 0 -29 5 -36
12 -9 9 -15 9 -24 -1 -11 -10 -10 -11 3 -6 10 4 20 2 24 -4 3 -6 16 -11 29
-11 12 0 37 -15 56 -35 19 -19 37 -35 41 -35 4 0 7 15 7 34 0 21 8 42 21 55
20 20 24 20 42 7 26 -17 49 -11 49 14 0 35 11 52 26 39 11 -9 17 -3 31 25 9
20 20 36 24 36 4 0 5 9 2 19 -3 11 2 29 10 41 14 20 15 20 31 -14 9 -19 16
-40 16 -48 0 -7 5 -20 11 -28 8 -11 9 -8 4 13 -8 38 -38 107 -46 107 -4 0 -14
-11 -23 -25z"/>
<path d="M10818 9276 c-10 -7 -18 -17 -18 -21 0 -5 9 0 19 9 11 10 27 16 35
14 13 -2 7 -18 -30 -78 -26 -41 -60 -92 -76 -112 -16 -21 -26 -38 -21 -38 7 0
134 183 158 228 9 17 -44 16 -67 -2z"/>
<path d="M10584 9205 c-10 -8 -27 -15 -37 -15 -10 0 -35 -19 -57 -42 l-39 -43
-24 23 c-31 29 -45 13 -21 -23 16 -24 16 -27 -1 -45 -15 -16 -16 -22 -5 -35
19 -22 -18 -56 -51 -48 -21 6 -22 4 -11 -9 11 -14 10 -16 -10 -10 -20 5 -21 3
-10 -10 8 -10 9 -19 3 -22 -5 -4 -12 -2 -16 4 -3 5 -10 10 -16 10 -12 0 -12
-37 0 -44 5 -4 7 4 3 16 -4 19 -3 21 9 11 11 -9 25 -2 69 37 48 42 53 50 41
64 -12 14 -11 19 4 36 17 18 17 21 1 46 -22 32 -16 41 9 14 25 -28 40 -25 70
14 14 19 37 37 50 40 13 3 30 9 39 12 11 4 16 0 16 -14 0 -31 19 -37 44 -13
12 12 29 21 38 21 9 0 22 8 29 18 11 14 11 15 -1 5 -8 -7 -22 -13 -32 -13 -9
0 -26 -10 -38 -22 -19 -21 -20 -21 -22 -2 -3 39 -3 43 -9 48 -3 3 -14 -1 -25
-9z"/>
<path d="M9411 9207 c-2 -14 29 -67 39 -67 5 0 7 -6 4 -13 -3 -8 2 -20 11 -27
8 -7 15 -21 15 -32 0 -11 16 -36 35 -55 45 -45 55 -64 55 -105 0 -47 -7 -53
-85 -83 -128 -50 -140 -56 -159 -83 l-19 -27 29 26 c35 32 67 49 91 49 10 0
35 9 56 20 20 11 44 20 52 20 27 0 48 47 42 93 -13 91 -25 129 -46 143 -29 21
-26 39 9 54 17 7 32 11 33 9 22 -40 27 -53 27 -74 0 -14 8 -33 19 -44 10 -10
21 -25 24 -32 4 -10 6 -9 6 4 1 10 -6 20 -14 23 -8 3 -17 22 -21 42 -8 45 -31
92 -45 92 -20 0 -69 -31 -69 -44 0 -7 11 -23 25 -36 24 -23 34 -60 16 -60 -14
0 -51 50 -51 68 0 9 -7 24 -16 34 -14 14 -14 20 -4 33 10 13 9 15 -7 15 -12 0
-26 13 -36 33 -8 17 -16 28 -16 24z"/>
<path d="M8934 9082 c8 -15 14 -36 13 -46 -3 -30 20 -30 27 0 6 21 10 24 19
14 9 -10 9 -14 0 -17 -20 -7 -15 -31 7 -43 11 -6 18 -15 15 -20 -3 -5 4 -18
16 -29 27 -25 19 -49 -18 -53 -19 -2 -27 -8 -25 -19 2 -13 -9 -18 -45 -22 -35
-4 -53 -12 -68 -31 -15 -18 -26 -24 -43 -20 -18 5 -22 2 -22 -15 0 -28 -21
-27 -66 4 -20 14 -42 25 -48 25 -15 0 -36 -20 -36 -34 0 -5 6 -1 14 9 13 18
16 18 42 5 16 -8 40 -22 53 -32 25 -19 51 -10 51 18 0 10 7 13 26 8 20 -5 26
-2 31 14 5 22 40 39 88 44 21 2 30 8 29 21 -1 10 5 17 16 17 50 0 66 33 33 65
-9 10 -17 29 -18 44 -2 44 -24 80 -47 81 -5 0 -8 -8 -8 -17 -1 -13 -6 -9 -16
11 -13 24 -14 30 -2 37 9 6 7 9 -10 9 -21 0 -22 -1 -8 -28z m77 -75 c-13 -13
-26 -3 -16 12 3 6 11 8 17 5 6 -4 6 -10 -1 -17z"/>
<path d="M10672 9003 l-38 -38 36 30 c19 16 39 33 45 37 5 5 6 8 2 8 -4 0 -25
-17 -45 -37z"/>
<path d="M10591 8887 c-17 -35 -31 -68 -30 -73 0 -9 43 72 60 114 18 45 0 20
-30 -41z"/>
<path d="M9678 8894 c43 -52 97 -79 123 -63 22 14 72 10 99 -7 l25 -16 -24 21
c-24 22 -70 27 -99 12 -23 -12 -86 14 -101 42 -7 12 -24 31 -39 42 -20 14 -16
6 16 -31z"/>
<path d="M10279 8849 c-8 -16 -17 -20 -37 -16 -17 3 -34 -1 -45 -11 -15 -13
-22 -14 -38 -3 -21 13 -60 9 -112 -11 -19 -7 -31 -7 -40 1 -10 8 -22 5 -47
-14 -19 -14 -30 -25 -26 -25 4 0 19 9 33 20 19 15 29 17 39 10 9 -8 29 -6 69
6 46 13 62 14 80 4 18 -10 27 -9 47 4 14 9 27 13 31 10 12 -12 55 6 60 26 7
26 1 26 -14 -1z"/>
<path d="M10498 8763 c-19 -21 -49 -59 -67 -85 -17 -26 -39 -53 -49 -60 -9 -7
-26 -24 -37 -38 -11 -14 0 -7 24 15 23 22 60 65 81 96 22 31 53 68 70 83 17
14 28 26 23 26 -5 0 -25 -17 -45 -37z"/>
<path d="M7090 8770 c0 -15 7 -20 25 -20 18 0 25 5 25 20 0 15 -7 20 -25 20
-18 0 -25 -5 -25 -20z"/>
<path d="M7200 8770 c0 -15 7 -20 25 -20 18 0 25 5 25 20 0 15 -7 20 -25 20
-18 0 -25 -5 -25 -20z"/>
<path d="M6871 8768 c0 -7 15 -51 32 -98 31 -80 34 -85 62 -85 28 0 31 5 66
98 l37 97 -27 0 c-25 0 -29 -6 -51 -72 l-23 -73 -24 73 c-22 63 -28 72 -49 72
-13 0 -24 -6 -23 -12z"/>
<path d="M8644 8745 c-4 -9 -19 -15 -40 -15 l-34 0 0 -50 c0 -36 -4 -50 -14
-50 -9 0 -15 -15 -18 -45 -3 -39 -1 -45 16 -45 15 0 17 -3 9 -11 -9 -9 -8 -18
4 -35 12 -18 21 -22 40 -18 l25 7 -17 -34 c-10 -19 -31 -49 -49 -68 -20 -22
-27 -35 -18 -38 6 -3 12 -11 12 -19 0 -8 6 -14 14 -14 24 0 30 -40 9 -55 -15
-12 -20 -12 -32 0 -12 12 -20 10 -56 -10 -31 -19 -49 -23 -78 -18 -34 5 -37 8
-37 39 0 29 -3 34 -24 34 -13 0 -35 9 -49 20 -26 20 -44 24 -69 15 -11 -4 -13
-19 -10 -59 4 -45 1 -57 -17 -75 -11 -11 -33 -24 -48 -27 -47 -12 -103 -52
-103 -74 0 -30 -28 -36 -53 -11 -20 20 -33 91 -17 91 4 0 12 11 17 23 9 20 7
29 -10 50 -12 15 -34 31 -49 36 -26 10 -30 24 -15 48 8 12 -10 29 -20 19 -4
-3 -1 -6 7 -6 8 0 9 -4 3 -12 -16 -23 -9 -42 22 -57 50 -24 74 -74 41 -87 -8
-3 -13 -20 -13 -45 0 -32 6 -45 34 -70 39 -34 57 -29 66 20 5 23 17 33 69 55
92 40 100 50 97 116 -3 52 -2 55 22 58 15 2 32 -5 44 -18 10 -11 28 -20 41
-20 18 0 23 -6 26 -32 3 -29 7 -33 42 -40 30 -7 47 -4 82 13 36 18 46 20 59 9
13 -11 19 -10 35 5 19 17 23 17 97 -10 42 -15 101 -44 130 -64 47 -32 52 -40
53 -72 l0 -37 -67 -7 c-38 -4 -74 -12 -80 -17 -7 -6 -13 -30 -13 -53 0 -23 -3
-56 -6 -73 -6 -28 -11 -32 -63 -43 -31 -6 -64 -18 -73 -27 -21 -18 -24 -82 -6
-115 29 -55 122 -167 138 -167 27 0 88 28 110 50 11 11 20 33 20 51 0 17 5 39
11 50 14 26 120 129 133 129 6 0 26 -18 46 -41 34 -39 39 -41 133 -56 53 -9
97 -20 97 -25 0 -23 -26 -52 -75 -83 -29 -19 -57 -45 -61 -57 -4 -12 -18 -31
-31 -42 -17 -13 -23 -26 -20 -42 3 -18 -7 -35 -43 -71 -26 -27 -49 -57 -51
-68 -3 -12 -14 -21 -29 -23 -14 -2 -31 -9 -37 -14 -10 -8 -13 -1 -13 31 0 37
-2 41 -25 41 -25 0 -25 -1 -25 -82 -1 -53 -5 -89 -14 -101 -12 -16 -15 -14
-38 21 l-26 38 26 29 25 30 -23 3 c-17 3 -32 -5 -52 -30 l-27 -33 -1 63 c0 59
-1 62 -25 62 l-25 0 0 -105 0 -105 25 0 c21 0 25 5 25 30 0 17 4 30 9 30 6 0
18 -13 28 -30 13 -23 25 -30 48 -30 l30 -1 -27 -15 c-38 -20 -36 -28 2 -9 19
10 30 24 31 38 1 17 2 18 6 5 3 -11 14 -18 29 -18 20 0 24 5 24 30 0 31 25 80
41 80 5 0 9 -25 9 -55 0 -52 1 -55 25 -55 24 0 25 3 25 60 0 36 -5 64 -13 72
-18 16 -2 49 58 113 31 34 43 55 39 68 -4 12 5 27 25 46 17 16 31 35 31 43 0
8 27 32 60 53 40 26 63 48 67 65 3 14 13 34 22 45 15 18 15 19 -1 6 -15 -11
-33 -11 -105 -1 -104 15 -119 22 -156 66 -16 19 -35 34 -44 34 -8 0 -46 -32
-84 -70 -60 -62 -69 -75 -69 -108 0 -20 -4 -42 -8 -49 -12 -19 -101 -55 -120
-48 -18 6 -99 110 -119 154 -7 14 -12 43 -13 63 0 42 14 54 79 64 65 10 74 22
79 100 3 38 10 72 16 76 6 4 27 8 47 8 20 0 51 3 68 6 29 6 31 9 31 49 0 40
-3 44 -57 82 -32 23 -93 53 -135 68 -43 15 -79 33 -80 39 0 6 -2 18 -2 26 -1
8 -8 14 -15 12 -7 -1 -19 5 -26 15 -12 16 -10 22 15 48 25 27 60 85 60 100 0
4 -12 5 -26 3 -35 -4 -56 26 -31 44 11 9 14 18 8 27 -6 9 -11 10 -15 2 -14
-22 -26 -10 -26 24 0 19 5 35 10 35 6 0 10 -9 10 -20 0 -15 7 -20 25 -20 24 0
25 3 25 55 0 54 0 55 30 55 23 0 30 4 30 20 0 12 -7 20 -16 20 -10 0 -14 6
-10 15 3 8 3 15 0 15 -2 0 -7 -7 -10 -15z"/>
<path d="M7090 8655 c0 -73 1 -75 25 -75 24 0 25 2 25 75 0 73 -1 75 -25 75
-24 0 -25 -2 -25 -75z"/>
<path d="M7170 8720 c0 -5 7 -13 16 -18 12 -6 14 -23 12 -73 -3 -58 -5 -64
-25 -67 -37 -5 -28 -32 10 -32 54 0 67 23 67 118 l0 82 -40 0 c-22 0 -40 -4
-40 -10z"/>
<path d="M7300 8712 c0 -14 7 -17 40 -14 52 5 52 -13 0 -22 -54 -8 -76 -48
-45 -80 10 -10 35 -15 75 -15 l60 1 0 58 c0 74 -14 90 -81 90 -40 0 -49 -3
-49 -18z m80 -82 c0 -21 -33 -29 -45 -10 -9 15 4 30 26 30 12 0 19 -7 19 -20z"/>
<path d="M7460 8722 c0 -5 12 -37 26 -73 22 -53 24 -69 16 -92 -10 -27 -9 -28
15 -25 23 3 32 16 69 101 l42 98 -26 -3 c-21 -2 -30 -12 -43 -48 l-17 -45 -16
37 c-9 21 -16 42 -16 48 0 5 -11 10 -25 10 -14 0 -25 -4 -25 -8z"/>
<path d="M7660 8712 c0 -14 7 -17 40 -14 52 5 52 -13 0 -22 -54 -8 -76 -48
-45 -80 10 -10 35 -15 75 -15 l60 1 0 58 c0 74 -14 90 -81 90 -40 0 -49 -3
-49 -18z m80 -82 c0 -21 -33 -29 -45 -10 -9 15 4 30 26 30 12 0 19 -7 19 -20z"/>
<path d="M7830 8655 c0 -73 1 -75 24 -75 23 0 25 4 28 53 3 45 6 52 26 55 21
3 22 0 22 -52 0 -53 1 -56 25 -56 24 0 25 3 25 59 0 41 -5 65 -16 75 -18 19
-55 21 -72 4 -9 -9 -12 -9 -12 0 0 7 -11 12 -25 12 -24 0 -25 -2 -25 -75z"/>
<path d="M8030 8712 c0 -14 7 -17 40 -14 52 5 52 -13 0 -22 -54 -8 -76 -48
-45 -80 10 -10 35 -15 75 -15 l60 1 0 58 c0 74 -14 90 -81 90 -40 0 -49 -3
-49 -18z m80 -82 c0 -21 -33 -29 -45 -10 -9 15 4 30 26 30 12 0 19 -7 19 -20z"/>
<path d="M8220 8712 c-61 -50 -13 -150 60 -127 17 5 21 3 18 -6 -3 -9 -20 -14
-47 -13 -33 1 -41 -3 -41 -18 0 -14 8 -18 38 -18 85 0 102 21 102 130 l0 69
-55 0 c-36 0 -61 -6 -75 -17z m80 -51 c0 -44 -10 -55 -40 -46 -39 12 -20 85
22 85 14 0 18 -8 18 -39z"/>
<path d="M8400 8712 c0 -14 7 -17 40 -14 52 5 52 -13 0 -22 -54 -8 -76 -48
-45 -80 10 -10 35 -15 75 -15 l60 1 0 58 c0 74 -14 90 -81 90 -40 0 -49 -3
-49 -18z m80 -82 c0 -21 -33 -29 -45 -10 -9 15 4 30 26 30 12 0 19 -7 19 -20z"/>
<path d="M8706 8714 c-9 -24 -9 -25 33 -18 21 3 41 2 45 -4 3 -5 -10 -12 -30
-15 -43 -7 -64 -23 -64 -48 0 -34 27 -48 90 -48 l60 1 0 63 c0 74 -10 85 -83
85 -32 0 -47 -5 -51 -16z m84 -79 c0 -21 -28 -31 -43 -16 -9 9 -8 14 3 21 22
14 40 12 40 -5z"/>
<path d="M8880 8654 c0 -72 1 -74 24 -74 23 0 25 4 28 53 3 44 6 52 23 52 17
0 20 -8 23 -52 3 -48 5 -53 27 -53 22 0 24 5 27 53 3 44 6 52 23 52 17 0 20
-8 23 -52 3 -49 5 -53 28 -53 23 0 24 3 24 59 0 41 -5 65 -16 75 -18 18 -55
21 -71 5 -7 -7 -17 -8 -29 -1 -11 5 -45 10 -76 10 l-58 0 0 -74z"/>
<path d="M9276 8656 c-9 -20 -23 -52 -31 -71 -11 -25 -13 -41 -6 -53 9 -14 10
-11 11 16 0 18 12 55 26 83 15 27 24 52 21 55 -3 4 -13 -10 -21 -30z"/>
<path d="M10080 8550 c0 -15 7 -20 25 -20 18 0 25 5 25 20 0 15 -7 20 -25 20
-18 0 -25 -5 -25 -20z"/>
<path d="M10170 8475 c0 -52 -1 -98 -2 -102 -2 -5 9 -9 25 -11 24 -3 27 0 27
27 0 39 14 39 37 1 13 -22 25 -30 46 -30 l28 0 -30 44 -30 44 20 18 c12 10 25
26 29 35 16 29 -42 10 -72 -23 l-28 -31 0 62 c0 58 -1 61 -25 61 -25 0 -25 0
-25 -95z"/>
<path d="M10530 8465 l0 -105 25 0 c21 0 25 5 25 30 0 17 4 30 9 30 6 0 18
-13 28 -30 13 -22 25 -30 46 -30 l28 0 -29 42 -30 43 25 32 25 33 -25 0 c-17
0 -34 -11 -51 -32 l-26 -33 0 63 c0 59 -1 62 -25 62 l-25 0 0 -105z"/>
<path d="M10900 8465 l0 -105 25 0 25 0 0 105 0 105 -25 0 -25 0 0 -105z"/>
<path d="M9767 8533 c-28 -36 -5 -74 56 -92 26 -8 46 -19 44 -25 -4 -13 -61
-14 -94 -2 -18 6 -23 4 -23 -9 0 -26 41 -54 81 -55 51 0 97 48 83 88 -7 21
-20 30 -57 41 -67 20 -65 46 3 38 44 -5 50 -4 50 13 0 23 -23 31 -81 29 -34
-2 -49 -8 -62 -26z"/>
<path d="M9950 8435 c0 -73 1 -75 25 -75 24 0 25 3 25 55 0 52 1 55 25 55 14
0 28 7 32 15 8 23 -4 30 -32 17 -15 -7 -27 -8 -30 -2 -4 6 -15 10 -26 10 -17
0 -19 -7 -19 -75z"/>
<path d="M10080 8435 c0 -73 1 -75 25 -75 24 0 25 2 25 75 0 73 -1 75 -25 75
-24 0 -25 -2 -25 -75z"/>
<path d="M10360 8492 c0 -14 7 -17 40 -14 52 5 52 -13 0 -22 -54 -8 -76 -48
-45 -80 10 -10 35 -15 75 -15 l60 1 0 58 c0 74 -14 90 -81 90 -40 0 -49 -3
-49 -18z m80 -82 c0 -21 -33 -29 -45 -10 -9 15 4 30 26 30 12 0 19 -7 19 -20z"/>
<path d="M10710 8451 c0 -41 5 -65 16 -75 18 -19 55 -21 72 -4 9 9 12 9 12 0
0 -7 11 -12 25 -12 24 0 25 2 25 75 0 73 -1 75 -25 75 -24 0 -25 -3 -25 -56 0
-52 -1 -55 -22 -52 -20 3 -23 10 -26 56 -3 48 -5 52 -28 52 -23 0 -24 -3 -24
-59z"/>
<path d="M11000 8492 c0 -14 7 -17 40 -14 52 5 52 -13 0 -22 -54 -8 -76 -48
-45 -80 10 -10 35 -15 75 -15 l60 1 0 58 c0 74 -14 90 -81 90 -40 0 -49 -3
-49 -18z m80 -82 c0 -21 -33 -29 -45 -10 -9 15 4 30 26 30 12 0 19 -7 19 -20z"/>
<path d="M11170 8435 c0 -73 1 -75 24 -75 23 0 25 4 28 53 3 45 6 52 26 55 21
3 22 0 22 -52 0 -53 1 -56 24 -56 23 0 25 4 28 53 3 45 6 52 26 55 21 3 22 0
22 -52 0 -53 1 -56 25 -56 24 0 25 3 25 59 0 80 -28 109 -80 81 -13 -7 -27 -6
-44 2 -20 8 -32 8 -51 0 -15 -7 -25 -8 -25 -2 0 6 -11 10 -25 10 -24 0 -25 -2
-25 -75z"/>
<path d="M7797 8462 c-20 -21 -37 -42 -37 -48 0 -5 -20 -30 -45 -54 -43 -42
-57 -70 -35 -70 6 0 10 -9 10 -19 0 -11 4 -22 9 -25 11 -7 2 34 -12 52 -7 9 3
25 37 58 25 26 46 50 46 55 0 5 14 25 32 45 31 35 32 35 40 14 4 -12 17 -24
27 -27 14 -4 21 -16 24 -42 l4 -36 1 38 c2 32 -2 39 -23 47 -15 6 -25 17 -25
30 0 29 -11 25 -53 -18z"/>
<path d="M9270 8483 c0 -6 7 -16 15 -23 13 -11 15 -27 9 -84 -4 -39 -4 -69 -2
-66 3 3 9 34 12 70 6 58 5 69 -13 89 -12 13 -21 19 -21 14z"/>
<path d="M10066 8280 c-26 -28 -46 -59 -46 -72 0 -13 -7 -31 -15 -42 -13 -18
-120 -79 -195 -112 -36 -16 -122 -59 -175 -88 -16 -9 -61 -30 -100 -48 -38
-18 -73 -33 -76 -35 -3 -2 -16 36 -28 84 -35 136 -47 163 -106 231 -30 35 -55
60 -55 57 0 -4 22 -32 50 -64 51 -58 79 -113 81 -153 0 -13 10 -54 23 -92 l22
-70 -30 -27 c-17 -14 -50 -38 -73 -53 -24 -14 -43 -29 -43 -31 0 -10 44 17
113 71 38 28 99 65 136 80 131 56 436 216 459 240 12 14 22 36 22 48 0 14 19
45 46 75 59 65 51 67 -10 1z"/>
<path d="M9279 8283 c-13 -16 -12 -17 4 -4 16 13 21 21 13 21 -2 0 -10 -8 -17
-17z"/>
<path d="M7657 8191 c-28 -30 -19 -47 16 -29 9 5 23 6 29 2 7 -4 8 -3 4 5 -5
7 -16 9 -29 5 -21 -6 -21 -6 -4 20 22 34 18 33 -16 -3z"/>
<path d="M7690 8125 c-7 -8 -21 -15 -31 -15 -23 0 -29 -11 -31 -55 -1 -19 -7
-40 -15 -46 -18 -15 -16 -29 5 -45 27 -21 37 -16 11 5 -23 18 -23 20 -6 39 10
11 17 23 16 28 -5 31 4 55 24 63 21 8 57 41 44 41 -2 0 -10 -7 -17 -15z"/>
<path d="M7667 7930 c5 -17 2 -21 -13 -18 -14 2 -20 -4 -22 -26 -2 -16 1 -33
7 -39 7 -7 8 1 4 27 -5 29 -3 35 9 31 23 -9 42 19 24 34 -12 10 -13 8 -9 -9z"/>
<path d="M7220 7809 c0 -14 -51 -64 -85 -82 -16 -9 -25 -16 -20 -17 6 0 25 9
42 20 l33 19 14 -47 c8 -26 15 -39 15 -29 1 10 -5 32 -13 50 -12 30 -11 35 8
58 17 21 28 25 61 22 22 -2 50 -3 62 -3 12 0 25 -5 28 -10 3 -6 14 -10 23 -10
10 0 23 -9 29 -19 17 -27 122 -76 136 -62 7 7 4 10 -9 9 -28 -2 -113 42 -125
63 -5 11 -18 19 -27 19 -10 0 -22 4 -27 9 -13 13 -145 22 -145 10z"/>
<path d="M7556 7801 c-10 -11 -16 -28 -13 -38 4 -15 5 -15 6 3 0 12 8 28 17
35 14 11 18 11 29 -4 6 -9 15 -14 18 -11 7 7 -17 34 -31 34 -5 0 -17 -9 -26
-19z"/>
<path d="M7072 7708 c-13 -13 -79 -38 -103 -38 -8 0 -30 -16 -49 -35 -28 -29
-31 -36 -20 -50 7 -9 23 -21 34 -26 12 -6 8 0 -9 14 l-30 25 29 31 c17 17 40
31 52 31 13 0 36 5 51 12 33 14 80 48 66 48 -5 0 -14 -5 -21 -12z"/>
<path d="M7222 7630 c0 -14 2 -19 5 -12 2 6 2 18 0 25 -3 6 -5 1 -5 -13z"/>
<path d="M7210 7589 c0 -8 -7 -27 -15 -43 -12 -23 -12 -26 -1 -17 15 13 30 60
21 69 -3 3 -5 -1 -5 -9z"/>
<path d="M6930 7530 c-8 -5 -23 -10 -33 -10 -21 0 -77 -37 -77 -50 0 -5 12 2
26 15 15 14 37 25 49 25 11 0 30 7 41 15 21 16 17 20 -6 5z"/>
<path d="M7083 7456 c-34 -31 -36 -36 -25 -60 11 -25 14 -26 99 -24 l88 2 -87
3 c-79 3 -88 6 -94 26 -5 17 1 28 31 54 21 18 35 33 32 33 -4 0 -24 -15 -44
-34z"/>
<path d="M6667 7384 c-20 -23 -37 -51 -37 -61 0 -10 -12 -36 -27 -58 -24 -36
-40 -83 -47 -145 -2 -14 -1 -16 1 -5 3 11 9 24 14 30 5 5 9 22 9 37 0 15 14
50 30 76 17 27 30 58 30 68 0 10 16 36 35 56 30 32 39 36 68 31 19 -3 37 -1
40 3 3 5 -14 9 -37 10 -37 1 -46 -4 -79 -42z"/>
<path d="M8230 7370 c0 -15 7 -20 25 -20 18 0 25 5 25 20 0 15 -7 20 -25 20
-18 0 -25 -5 -25 -20z"/>
<path d="M8011 7368 c0 -7 15 -51 32 -98 30 -79 35 -85 62 -88 30 -3 31 -1 63
90 18 51 32 96 32 101 0 4 -11 7 -23 7 -20 0 -27 -9 -42 -60 -10 -34 -22 -63
-26 -66 -4 -2 -17 25 -29 61 -19 56 -25 65 -46 65 -13 0 -24 -6 -23 -12z"/>
<path d="M7249 7344 c-5 -15 -12 -31 -16 -37 -3 -6 -1 -7 4 -4 11 7 36 67 27
67 -2 0 -9 -12 -15 -26z"/>
<path d="M9577 7340 c-4 -16 -4 -35 -2 -42 2 -7 7 -33 9 -57 6 -50 17 -61 64
-61 35 0 41 21 7 30 -15 5 -21 16 -23 48 -3 38 -1 42 21 42 14 0 24 6 24 15 0
9 -10 15 -24 15 -16 0 -23 6 -23 20 0 14 -7 20 -24 20 -18 0 -25 -7 -29 -30z"/>
<path d="M8230 7255 c0 -73 1 -75 25 -75 24 0 25 2 25 75 0 73 -1 75 -25 75
-24 0 -25 -2 -25 -75z"/>
<path d="M8336 7317 c-29 -21 -17 -58 23 -72 51 -17 53 -38 5 -33 -29 2 -39
-1 -39 -12 0 -22 70 -25 101 -5 44 29 25 66 -39 80 -42 9 -21 28 24 22 37 -5
49 7 24 25 -16 12 -80 9 -99 -5z"/>
<path d="M8487 7324 c-13 -14 6 -24 44 -24 52 0 50 -15 -3 -26 -39 -8 -43 -12
-46 -43 -4 -43 7 -50 80 -50 l58 1 0 58 c0 74 -14 90 -79 90 -26 0 -51 -3 -54
-6z m83 -94 c0 -13 -7 -20 -19 -20 -22 0 -35 15 -26 30 12 19 45 11 45 -10z"/>
<path d="M9040 7312 c0 -14 7 -17 40 -14 52 5 52 -13 0 -22 -54 -8 -76 -48
-45 -80 10 -10 35 -15 75 -15 l60 1 0 58 c0 74 -14 90 -81 90 -40 0 -49 -3
-49 -18z m80 -82 c0 -21 -33 -29 -45 -10 -9 15 4 30 26 30 12 0 19 -7 19 -20z"/>
<path d="M9213 7229 c0 -97 1 -99 24 -99 19 0 23 5 23 28 0 26 3 28 28 24 38
-5 71 24 78 69 9 55 -17 77 -94 77 l-60 0 1 -99z m105 38 c4 -33 -13 -57 -39
-57 -15 0 -19 7 -19 38 0 45 6 54 35 50 14 -2 21 -12 23 -31z"/>
<path d="M9410 7312 c0 -14 7 -17 40 -14 52 5 52 -13 0 -22 -54 -8 -76 -48
-45 -80 10 -10 35 -15 75 -15 l60 1 0 58 c0 74 -14 90 -81 90 -40 0 -49 -3
-49 -18z m80 -82 c0 -21 -33 -29 -45 -10 -9 15 4 30 26 30 12 0 19 -7 19 -20z"/>
<path d="M9700 7255 c0 -73 1 -75 24 -75 23 0 25 4 28 53 3 45 6 52 26 55 21
3 22 0 22 -52 0 -53 1 -56 25 -56 24 0 25 3 25 59 0 41 -5 65 -16 75 -18 19
-55 21 -72 4 -9 -9 -12 -9 -12 0 0 7 -11 12 -25 12 -24 0 -25 -2 -25 -75z"/>
<path d="M9900 7312 c0 -14 7 -17 40 -14 52 5 52 -13 0 -22 -54 -8 -76 -48
-45 -80 10 -10 35 -15 75 -15 l60 1 0 58 c0 74 -14 90 -81 90 -40 0 -49 -3
-49 -18z m80 -82 c0 -21 -33 -29 -45 -10 -9 15 4 30 26 30 12 0 19 -7 19 -20z"/>
<path d="M10070 7255 c0 -73 1 -75 24 -75 23 0 25 4 28 53 3 45 6 52 26 55 21
3 22 0 22 -52 0 -53 1 -56 24 -56 23 0 25 4 28 53 3 45 6 52 26 55 21 3 22 0
22 -52 0 -53 1 -56 25 -56 24 0 25 3 25 59 0 80 -28 109 -80 81 -13 -7 -27 -6
-44 2 -20 8 -32 8 -51 0 -15 -7 -25 -8 -25 -2 0 6 -11 10 -25 10 -24 0 -25 -2
-25 -75z"/>
<path d="M7220 7251 c0 -11 4 -22 9 -25 4 -3 6 6 3 19 -5 30 -12 33 -12 6z"/>
<path d="M7315 7245 c-33 -13 -55 -24 -50 -24 6 -1 34 8 63 19 71 27 106 25
169 -10 29 -17 53 -28 53 -25 0 2 -24 18 -52 35 -64 36 -102 37 -183 5z"/>
<path d="M7570 7190 c8 -5 30 -10 48 -10 32 0 33 -1 27 -30 -6 -26 0 -36 43
-80 27 -27 54 -50 60 -50 5 0 17 11 26 26 10 14 27 29 39 34 16 6 17 9 5 9 -9
1 -28 -12 -41 -29 -14 -16 -29 -30 -33 -30 -4 0 -26 21 -50 47 -35 38 -42 51
-37 74 6 31 3 34 -62 43 -27 4 -35 2 -25 -4z"/>
<path d="M8715 7118 c-55 -19 -150 -60 -160 -70 -10 -9 39 9 102 38 17 8 37
14 45 14 8 0 23 7 34 15 22 16 20 17 -21 3z"/>
<path d="M7860 7066 c14 -8 39 -15 56 -16 30 0 32 -3 38 -46 9 -71 9 -73 -32
-89 -20 -9 -44 -25 -51 -38 l-14 -22 24 22 c13 12 36 26 52 32 36 14 42 31 31
94 -9 51 -10 52 -49 58 -22 3 -49 9 -60 13 -13 5 -11 2 5 -8z"/>
<path d="M6529 6999 c-60 -107 -71 -116 -174 -131 -89 -13 -90 -13 -87 -40 4
-35 -12 -43 -86 -39 -49 2 -63 -1 -68 -13 -8 -20 -24 -21 -24 -1 0 9 -9 15
-25 15 -30 0 -31 -4 -4 -69 12 -28 20 -54 17 -56 -2 -3 -19 -8 -36 -11 l-32
-6 0 55 c0 71 -15 87 -81 87 -40 0 -49 -3 -49 -18 0 -14 7 -17 40 -14 52 5 52
-13 0 -22 -67 -10 -81 -80 -19 -93 16 -3 28 -11 26 -17 -6 -18 -79 -19 -102
-2 -11 9 -14 16 -7 16 9 0 12 28 12 105 l0 105 -25 0 c-22 0 -25 -4 -25 -34 0
-30 -2 -33 -25 -28 -55 10 -101 -58 -74 -110 15 -29 28 -38 55 -38 16 0 23 -8
28 -31 12 -60 8 -69 -24 -69 -16 0 -31 -3 -31 -7 -1 -5 -3 -30 -5 -58 -2 -36
-9 -55 -25 -67 -12 -10 -17 -18 -12 -18 6 0 18 9 28 20 10 11 22 17 26 14 5
-3 9 0 9 5 0 6 -4 11 -9 11 -5 0 -9 19 -8 42 2 39 5 43 32 48 29 5 30 7 28 58
-1 29 1 52 5 52 4 0 21 -9 37 -20 40 -27 111 -27 120 -1 3 11 15 19 28 19 12
1 59 2 103 3 l82 2 27 67 c22 55 31 67 46 63 10 -3 19 -9 19 -14 0 -4 15 -5
34 -2 18 3 36 1 40 -5 3 -5 -12 -12 -34 -16 -31 -5 -43 -12 -50 -31 -19 -50 1
-64 88 -64 l52 0 0 59 c0 68 -15 90 -64 90 -30 0 -32 2 -28 29 4 27 7 29 85
40 89 12 115 28 148 94 21 39 51 49 79 25 12 -11 12 -10 1 5 -7 9 -22 17 -33
17 -20 0 -20 1 -3 26 9 14 15 28 12 30 -2 2 -19 -24 -38 -57z m-380 -226 c0
-5 -6 -24 -14 -43 -10 -28 -14 -32 -20 -17 -10 24 3 67 20 67 8 0 15 -3 14 -7z
m-371 -55 c-2 -33 -8 -44 -22 -46 -21 -4 -36 13 -36 44 0 25 18 44 43 44 15 0
18 -7 15 -42z m182 -28 c0 -13 -7 -20 -19 -20 -22 0 -35 15 -26 30 12 19 45
11 45 -10z m360 5 c0 -21 -28 -31 -43 -16 -9 9 -8 14 3 21 22 14 40 12 40 -5z"/>
<path d="M8525 7021 c-5 -17 -80 -61 -104 -61 -6 0 -13 -5 -16 -10 -4 -6 18
-1 47 10 49 19 88 50 88 71 0 16 -8 10 -15 -10z"/>
<path d="M6612 6940 c8 -14 24 -29 34 -34 15 -7 20 -20 22 -55 2 -44 20 -72
46 -70 6 0 1 5 -11 11 -22 11 -29 38 -25 91 1 10 -6 20 -16 24 -9 3 -28 17
-41 32 l-24 26 15 -25z"/>
<path d="M8180 6841 c-63 -32 -153 -82 -200 -110 l-85 -51 -11 61 c-6 33 -16
65 -22 71 -6 6 -8 18 -5 27 4 13 3 13 -5 2 -7 -10 -6 -21 3 -35 7 -12 16 -46
19 -76 l7 -56 -78 -75 c-43 -42 -87 -79 -98 -83 -11 -3 -28 -21 -39 -38 l-18
-33 -10 25 c-21 53 -24 55 -74 55 -39 0 -49 -4 -52 -18 -3 -15 2 -17 37 -11
28 4 41 3 41 -5 0 -6 -8 -11 -18 -11 -38 0 -72 -24 -72 -51 0 -37 17 -47 83
-47 56 0 57 0 57 27 0 15 9 36 20 46 11 10 20 13 20 7 0 -6 18 -16 40 -22 22
-6 40 -15 40 -20 0 -13 -46 -13 -71 0 -16 9 -19 7 -19 -9 0 -34 77 -44 118
-15 41 29 22 65 -41 79 -15 3 -25 10 -22 15 9 14 49 12 63 -2 7 -7 12 -10 13
-7 0 2 2 12 4 22 2 13 -5 19 -27 24 l-30 6 59 59 c63 64 222 164 402 254 58
29 102 53 96 53 -5 0 -62 -26 -125 -58z m-585 -411 c0 -18 -33 -26 -47 -12 -6
6 -7 15 -3 22 10 16 50 8 50 -10z"/>
<path d="M6540 6830 c0 -15 7 -20 25 -20 18 0 25 5 25 20 0 15 -7 20 -25 20
-18 0 -25 -5 -25 -20z"/>
<path d="M4414 6823 c2 -10 14 -55 26 -100 21 -78 24 -83 50 -83 24 0 28 5 39
55 7 30 16 55 21 55 5 0 14 -25 21 -55 11 -51 14 -55 40 -55 30 0 28 -4 60
123 5 23 12 50 15 60 4 13 -1 17 -20 17 -23 0 -26 -6 -38 -60 -6 -33 -15 -60
-19 -60 -3 0 -12 27 -18 61 -12 57 -14 60 -39 57 -23 -3 -28 -10 -41 -60 -8
-32 -18 -58 -22 -58 -4 0 -10 21 -14 46 -10 66 -14 74 -42 74 -18 0 -23 -4
-19 -17z"/>
<path d="M5299 6812 c-68 -61 -24 -172 69 -172 73 0 82 7 82 61 l0 49 -45 0
c-38 0 -45 -3 -45 -20 0 -13 7 -20 20 -20 11 0 20 -7 20 -15 0 -20 -44 -20
-64 1 -9 8 -16 28 -16 44 0 52 44 73 104 50 23 -9 26 -7 26 14 0 46 -103 51
-151 8z"/>
<path d="M5056 6799 c-3 -17 -4 -35 -1 -39 3 -5 7 -30 10 -56 5 -53 17 -65 59
-62 36 4 46 25 14 30 -19 2 -23 10 -26 46 -3 39 -1 42 22 42 16 0 26 6 26 15
0 9 -9 15 -25 15 -18 0 -25 5 -25 20 0 14 -7 20 -24 20 -18 0 -25 -7 -30 -31z"/>
<path d="M4741 6773 c-11 -10 -24 -32 -27 -50 -5 -26 -1 -37 19 -57 40 -40
127 -34 133 8 2 18 -11 22 -21 6 -11 -19 -85 -9 -85 11 0 5 25 9 55 9 52 0 55
1 55 25 0 56 -82 87 -129 48z m77 -30 c2 -9 -7 -13 -27 -13 -30 0 -39 9 -24
24 11 10 46 3 51 -11z"/>
<path d="M4922 6783 c-18 -7 -33 -39 -26 -57 3 -9 24 -21 45 -26 21 -6 39 -15
39 -20 0 -13 -46 -13 -71 0 -16 9 -19 7 -19 -9 0 -34 77 -44 118 -15 41 29 22
65 -41 79 -15 3 -25 10 -22 15 9 14 49 12 63 -2 7 -7 13 -9 13 -5 5 25 4 33
-6 39 -11 9 -73 9 -93 1z"/>
<path d="M5509 6771 c-17 -14 -23 -28 -22 -57 3 -95 141 -102 159 -7 13 66
-80 110 -137 64z m79 -23 c30 -30 -2 -93 -36 -71 -21 13 -27 50 -12 69 15 17
32 18 48 2z"/>
<path d="M6410 6715 c0 -73 1 -75 25 -75 24 0 25 3 25 55 0 54 0 55 30 55 23
0 30 4 30 20 0 23 -29 27 -48 8 -9 -9 -12 -9 -12 0 0 7 -11 12 -25 12 -24 0
-25 -2 -25 -75z"/>
<path d="M6540 6715 c0 -73 1 -75 25 -75 24 0 25 2 25 75 0 73 -1 75 -25 75
-24 0 -25 -2 -25 -75z"/>
<path d="M6732 6695 c-2 -46 0 -85 5 -88 8 -5 12 158 3 166 -3 3 -6 -32 -8
-78z"/>
<path d="M6756 6577 c3 -10 9 -15 12 -12 3 3 0 11 -7 18 -10 9 -11 8 -5 -6z"/>
<path d="M8560 6556 c0 -30 -2 -33 -25 -28 -55 10 -101 -58 -74 -110 17 -33
25 -36 90 -36 l59 0 0 104 0 104 -25 0 c-22 0 -25 -4 -25 -34z m-2 -98 c-2
-33 -8 -44 -22 -46 -21 -4 -36 13 -36 44 0 25 18 44 43 44 15 0 18 -7 15 -42z"/>
<path d="M9320 6570 c0 -15 7 -20 25 -20 18 0 25 5 25 20 0 15 -7 20 -25 20
-18 0 -25 -5 -25 -20z"/>
<path d="M7330 6480 l0 -100 65 0 c58 0 65 2 65 20 0 17 -7 20 -45 20 -41 0
-45 2 -45 25 0 23 4 25 40 25 33 0 40 3 40 20 0 17 -7 20 -40 20 -29 0 -40 4
-40 15 0 11 12 15 45 15 38 0 45 3 45 20 0 18 -7 20 -65 20 l-65 0 0 -100z"/>
<path d="M8079 6552 c-68 -61 -24 -172 69 -172 73 0 82 7 82 61 l0 49 -45 0
c-38 0 -45 -3 -45 -20 0 -13 7 -20 20 -20 11 0 20 -7 20 -15 0 -20 -44 -20
-64 1 -9 8 -16 28 -16 44 0 52 44 73 104 50 23 -9 26 -7 26 14 0 46 -103 51
-151 8z"/>
<path d="M7836 6539 c-3 -17 -4 -35 -1 -39 3 -5 7 -30 10 -56 5 -53 15 -64 63
-64 35 0 41 21 7 30 -15 5 -21 16 -23 48 -3 38 -1 42 21 42 14 0 24 6 24 15 0
9 -10 15 -24 15 -16 0 -23 6 -23 20 0 14 -7 20 -24 20 -18 0 -25 -7 -30 -31z"/>
<path d="M5312 6538 c-7 -7 -31 -21 -55 -33 -35 -17 -42 -25 -42 -50 0 -21 -7
-33 -25 -42 -22 -11 -23 -13 -5 -13 25 0 48 35 40 60 -5 15 3 23 38 38 25 11
47 24 51 30 7 12 80 -20 93 -40 4 -7 8 -24 8 -38 0 -17 5 -24 15 -21 8 2 41 5
73 5 48 1 53 2 31 10 -17 5 -44 5 -71 -1 l-44 -10 6 27 c5 23 1 32 -23 49 -17
12 -36 21 -44 21 -8 0 -19 5 -24 10 -7 7 -14 6 -22 -2z"/>
<path d="M6786 6522 c5 -4 16 -22 23 -39 8 -18 17 -33 21 -33 4 0 -1 18 -12
40 -11 22 -25 40 -32 40 -7 0 -8 -3 0 -8z"/>
<path d="M8289 6511 c-17 -14 -23 -28 -22 -57 1 -46 30 -74 78 -74 48 0 79 29
79 75 0 67 -81 100 -135 56z m79 -23 c30 -30 -2 -93 -36 -71 -21 13 -27 50
-12 69 15 17 32 18 48 2z"/>
<path d="M8660 6512 c0 -14 7 -17 40 -14 52 5 52 -13 0 -22 -54 -8 -76 -48
-45 -80 10 -10 35 -15 75 -15 l60 1 0 58 c0 74 -14 90 -81 90 -40 0 -49 -3
-49 -18z m80 -82 c0 -21 -33 -29 -45 -10 -9 15 4 30 26 30 12 0 19 -7 19 -20z"/>
<path d="M8820 6523 c0 -4 12 -38 27 -75 23 -60 29 -68 53 -68 23 0 29 8 57
76 l31 75 -26 -3 c-21 -2 -29 -12 -43 -53 l-17 -50 -11 28 c-6 15 -14 39 -17
52 -4 18 -13 25 -30 25 -13 0 -24 -3 -24 -7z"/>
<path d="M9020 6512 c0 -14 7 -17 40 -14 52 5 52 -13 0 -22 -54 -8 -76 -48
-45 -80 10 -10 35 -15 75 -15 l60 1 0 58 c0 74 -14 90 -81 90 -40 0 -49 -3
-49 -18z m80 -82 c0 -21 -33 -29 -45 -10 -9 15 4 30 26 30 12 0 19 -7 19 -20z"/>
<path d="M9190 6455 c0 -73 1 -75 25 -75 24 0 25 3 25 55 0 54 0 55 29 55 24
0 29 4 28 20 -1 22 -26 27 -45 8 -9 -9 -12 -9 -12 0 0 7 -11 12 -25 12 -24 0
-25 -2 -25 -75z"/>
<path d="M9320 6455 c0 -73 1 -75 25 -75 24 0 25 2 25 75 0 73 -1 75 -25 75
-24 0 -25 -2 -25 -75z"/>
<path d="M5075 6450 c-14 -16 -15 -24 -6 -51 10 -28 8 -34 -14 -57 -28 -27
-31 -41 -12 -46 64 -17 97 -22 89 -14 -5 5 -28 12 -51 15 -22 3 -41 8 -41 11
0 3 11 18 25 32 23 24 24 30 14 59 -18 51 4 63 31 17 24 -39 38 -50 19 -13 -7
12 -18 32 -24 44 -12 23 -12 23 -30 3z"/>
<path d="M5590 6420 c14 -4 34 -8 45 -8 16 0 15 2 -5 8 -14 4 -34 8 -45 8 -16
0 -15 -2 5 -8z"/>
<path d="M5794 6402 c60 -33 66 -46 26 -60 -19 -7 -30 -18 -29 -29 1 -38 26
-85 63 -124 33 -34 41 -49 48 -100 6 -49 5 -65 -9 -85 -15 -24 -15 -29 1 -75
10 -28 17 -51 15 -53 -2 -2 -13 -8 -24 -14 -16 -9 -17 -11 -4 -12 34 0 42 26
25 76 -14 41 -14 49 -1 74 12 22 13 43 7 90 -8 52 -15 67 -49 103 -52 54 -82
137 -50 137 7 0 22 6 32 14 17 12 17 16 5 31 -14 16 -82 55 -97 55 -4 0 14
-13 41 -28z"/>
<path d="M6845 6395 c17 -48 25 -109 15 -119 -5 -5 -10 -15 -10 -20 0 -6 7 -1
15 11 16 23 9 92 -14 128 -12 20 -12 20 -6 0z"/>
<path d="M4795 6390 c-4 -6 -3 -9 2 -8 4 2 25 -10 45 -26 26 -19 46 -27 63
-24 20 4 25 0 30 -23 4 -16 11 -31 16 -34 5 -4 9 -24 9 -47 0 -34 6 -46 45
-85 30 -29 45 -39 45 -28 0 9 -9 19 -20 22 -11 3 -20 12 -20 19 0 8 -6 14 -14
14 -17 0 -26 22 -26 63 0 18 -7 45 -15 61 -8 15 -15 35 -15 43 0 11 -7 13 -31
8 -25 -6 -38 -1 -69 24 -23 18 -41 27 -45 21z"/>
<path d="M4741 6344 c-19 -13 -42 -24 -52 -24 -11 0 -19 -4 -19 -10 0 -5 -9
-10 -20 -10 -13 0 -25 -10 -32 -27 -7 -16 -22 -37 -34 -48 -12 -11 -25 -35
-29 -53 -6 -30 -4 -33 23 -38 43 -9 66 -67 43 -112 -5 -9 -15 -30 -22 -46 -8
-15 -23 -32 -35 -36 -19 -8 -54 -50 -54 -67 0 -4 9 5 19 21 10 15 29 33 42 40
26 12 68 88 69 124 0 46 58 39 71 -9 6 -21 7 -22 8 -3 1 28 -33 58 -59 51 -14
-4 -25 2 -36 18 -9 13 -25 25 -37 27 -32 4 -24 53 14 89 16 15 29 34 29 43 0
10 9 16 25 16 14 0 25 5 25 10 0 6 7 10 15 10 18 0 85 41 85 53 0 9 1 10 -39
-19z"/>
<path d="M7566 6345 c-3 -9 -6 -24 -5 -33 0 -9 5 -4 10 12 9 32 6 48 -5 21z"/>
<path d="M7637 6324 c-8 -8 12 -46 21 -40 9 5 15 -99 7 -124 -3 -10 -14 -21
-23 -23 -15 -4 -14 -5 2 -6 16 -1 18 -8 14 -61 -2 -33 -1 -55 4 -48 4 7 8 36
8 63 0 28 4 64 9 80 16 59 -16 185 -42 159z"/>
<path d="M5250 6284 c0 -8 -21 -12 -78 -15 l-24 -1 22 -15 c19 -14 23 -13 34
3 8 10 20 15 29 11 17 -6 34 9 23 20 -3 4 -6 2 -6 -3z"/>
<path d="M7537 6261 c-9 -16 -17 -35 -17 -42 0 -8 9 4 21 25 24 45 21 59 -4
17z"/>
<path d="M5298 6255 c18 -15 31 -33 28 -41 -3 -7 -2 -16 3 -18 4 -3 8 3 8 12
0 20 -24 50 -52 64 -11 5 -5 -3 13 -17z"/>
<path d="M6856 6177 c3 -10 9 -15 12 -12 3 3 0 11 -7 18 -10 9 -11 8 -5 -6z"/>
<path d="M7577 6160 c18 -19 34 -32 36 -29 2 2 -12 17 -32 33 l-36 30 32 -34z"/>
<path d="M5307 6162 c-24 -26 -21 -53 8 -81 24 -22 24 -24 8 -37 -16 -13 -15
-13 9 -3 l28 12 -30 29 c-34 32 -37 53 -13 80 9 10 14 18 11 18 -3 0 -12 -8
-21 -18z"/>
<path d="M5063 6132 c13 -15 14 -21 4 -32 -10 -12 -9 -12 5 -1 10 7 15 18 11
23 -7 12 1 9 44 -17 18 -11 33 -25 33 -32 0 -17 59 -50 105 -57 29 -5 36 -4
25 3 -8 6 -26 11 -38 11 -32 0 -79 29 -86 52 -2 11 -14 22 -25 25 -12 3 -21 9
-21 13 0 8 -45 30 -62 30 -6 0 -4 -8 5 -18z"/>
<path d="M6860 6104 c0 -21 4 -45 9 -53 5 -8 7 5 4 35 -7 61 -13 70 -13 18z"/>
<path d="M6916 5975 c8 -27 25 -61 37 -75 54 -59 60 -77 52 -163 -8 -99 -11
-107 -41 -107 -13 0 -30 -11 -41 -25 -51 -73 -49 -72 -70 -52 -11 9 -26 17
-34 17 -8 0 1 -9 19 -20 38 -24 52 -18 78 32 10 18 26 31 45 35 38 7 40 12 54
106 10 72 10 82 -8 116 -11 20 -32 51 -48 69 -16 18 -29 43 -29 55 0 13 -7 32
-15 43 -12 16 -12 12 1 -31z"/>
<path d="M4726 5938 c1 -65 4 -73 28 -91 14 -10 26 -14 26 -9 0 6 -9 14 -20
17 -22 7 -23 10 -20 70 1 22 -3 50 -7 62 -6 15 -8 -1 -7 -49z"/>
<path d="M7658 5968 c10 -13 11 -22 2 -40 -11 -22 -10 -22 4 -4 20 25 20 30
-1 47 -16 13 -17 12 -5 -3z"/>
<path d="M4197 5940 c-22 -25 -30 -29 -57 -24 -25 6 -34 2 -47 -16 -13 -18
-21 -21 -50 -15 -28 5 -40 2 -58 -15 -12 -11 -35 -25 -51 -31 -28 -9 -28 -9 6
-4 19 3 43 14 55 24 14 14 29 18 48 14 20 -4 34 1 52 17 18 16 30 20 52 16 24
-6 32 -2 51 24 25 33 66 41 76 14 4 -9 9 -14 13 -11 11 11 -19 37 -42 37 -13
0 -34 -13 -48 -30z"/>
<path d="M4330 5929 c-12 -8 -11 -9 5 -5 22 6 48 -10 58 -34 4 -12 6 -12 6 2
1 9 -9 24 -21 32 -26 19 -28 19 -48 5z"/>
<path d="M6273 5894 c-58 -76 -98 -116 -140 -141 -60 -35 -54 -40 8 -6 34 19
67 49 101 95 27 37 62 71 77 77 24 9 24 9 4 10 -14 1 -32 -12 -50 -35z"/>
<path d="M6338 5868 c-5 -48 8 -83 43 -113 l24 -20 -22 25 c-31 36 -41 68 -33
112 4 21 4 38 0 38 -4 0 -10 -19 -12 -42z"/>
<path d="M7625 5880 c-10 -11 -16 -22 -14 -24 2 -2 12 7 22 20 22 29 17 32 -8
4z"/>
<path d="M4480 5844 c-14 -7 -34 -11 -45 -8 -17 4 -18 4 -3 -6 18 -11 61 0 73
19 7 13 7 13 -25 -5z"/>
<path d="M3865 5830 c-3 -5 -17 -10 -30 -10 -17 0 -29 -9 -40 -30 -9 -16 -11
-30 -6 -30 5 0 12 11 15 25 4 17 13 25 29 25 12 0 31 7 41 15 11 8 15 15 9 15
-7 0 -15 -4 -18 -10z"/>
<path d="M4818 5803 c18 -18 34 -23 75 -22 l52 2 -58 7 c-32 4 -66 14 -75 21
-10 8 -7 4 6 -8z"/>
<path d="M5865 5810 c14 -47 26 -73 30 -68 3 3 0 20 -6 39 -14 41 -35 67 -24
29z"/>
<path d="M7602 5792 c-2 -38 -6 -45 -34 -57 -18 -8 -26 -14 -17 -15 9 0 27 8
39 18 17 14 21 25 17 57 l-4 40 -1 -43z"/>
<path d="M4980 5789 c-28 -5 -23 -7 28 -8 34 0 62 1 62 3 0 8 -56 11 -90 5z"/>
<path d="M3627 5750 c-20 -11 -43 -20 -50 -20 -7 0 -25 -14 -41 -32 -22 -25
-27 -39 -24 -67 3 -20 -2 -47 -9 -61 -18 -34 -14 -110 9 -139 10 -13 16 -31
14 -40 -2 -9 -7 -38 -11 -64 -6 -42 -11 -51 -38 -63 l-32 -15 33 7 c20 3 39 1
48 -7 11 -9 22 -9 52 4 23 10 60 16 100 14 61 -2 62 -1 105 43 l42 45 -43 -40
c-41 -38 -44 -39 -107 -37 -39 1 -78 -5 -101 -14 -21 -9 -40 -12 -46 -6 -5 5
-4 37 1 76 9 59 7 73 -9 103 -24 45 -21 128 6 147 12 9 14 15 6 20 -31 19 10
116 48 116 9 0 25 7 36 15 10 8 27 15 36 15 9 0 20 5 23 10 9 15 -7 12 -48
-10z"/>
<path d="M5130 5751 c19 -11 49 -20 65 -20 26 0 24 2 -15 13 -25 7 -54 16 -65
20 -11 4 -4 -2 15 -13z"/>
<path d="M3723 5753 c9 -2 25 -2 35 0 9 3 1 5 -18 5 -19 0 -27 -2 -17 -5z"/>
<path d="M5920 5749 c-11 -7 -5 -8 22 -3 27 4 42 2 53 -10 10 -10 31 -15 53
-14 l37 1 -37 4 c-20 2 -42 11 -48 19 -14 16 -58 18 -80 3z"/>
<path d="M3795 5731 c-49 -20 -72 -74 -55 -126 18 -56 88 -80 154 -55 23 8 26
15 26 55 l0 45 -45 0 c-38 0 -45 -3 -45 -20 0 -13 7 -20 20 -20 11 0 20 -7 20
-15 0 -21 -43 -19 -63 3 -10 10 -17 32 -17 49 0 40 33 58 89 48 33 -5 41 -4
41 9 0 31 -75 47 -125 27z"/>
<path d="M4340 5711 c0 -11 -4 -22 -9 -26 -6 -3 -4 -17 5 -33 7 -15 14 -43 14
-63 0 -39 12 -49 56 -49 15 0 24 6 24 15 0 8 -9 15 -20 15 -17 0 -20 7 -20 45
0 38 3 45 20 45 11 0 20 7 20 15 0 8 -9 15 -20 15 -13 0 -20 7 -20 20 0 15 -7
20 -25 20 -18 0 -25 -5 -25 -19z"/>
<path d="M5277 5698 c134 -86 176 -130 218 -228 23 -55 80 -128 110 -142 17
-7 25 -25 34 -74 8 -39 24 -80 42 -104 24 -32 29 -50 29 -94 0 -30 5 -67 12
-83 6 -15 14 -48 18 -73 7 -44 7 -44 9 -9 0 20 -6 53 -14 72 -8 20 -15 63 -15
95 0 39 -5 64 -14 71 -19 16 -52 97 -61 149 -5 33 -13 46 -35 57 -37 19 -72
65 -104 138 -14 32 -35 71 -47 88 -29 41 -198 169 -223 169 -6 0 13 -15 41
-32z"/>
<path d="M6409 5692 c5 -34 6 -35 9 -8 2 16 0 32 -5 37 -5 5 -7 -7 -4 -29z"/>
<path d="M7405 5662 c-60 -32 -152 -82 -203 -111 -59 -32 -115 -56 -150 -62
-61 -11 -137 -46 -189 -85 l-31 -24 -7 49 c-4 27 -13 69 -21 93 -15 46 -14 31
7 -80 12 -62 7 -90 -11 -62 -7 11 -10 11 -10 2 0 -26 31 -23 68 7 56 44 129
78 194 90 35 6 91 30 150 62 51 29 147 81 213 116 66 34 116 63 110 63 -5 0
-59 -27 -120 -58z"/>
<path d="M3960 5631 c0 -77 12 -89 90 -89 l60 0 0 74 c0 72 -1 74 -24 74 -23
0 -25 -4 -28 -52 -3 -46 -6 -53 -25 -56 -22 -3 -23 0 -23 52 0 53 -1 56 -25
56 -24 0 -25 -3 -25 -59z"/>
<path d="M4150 5615 c0 -73 1 -75 24 -75 23 0 25 4 28 53 3 44 6 52 23 52 16
0 22 -10 29 -52 7 -42 13 -53 27 -53 16 0 19 8 19 54 0 38 -6 61 -19 77 -17
22 -22 23 -50 12 -17 -6 -31 -7 -31 -2 0 5 -11 9 -25 9 -24 0 -25 -2 -25 -75z"/>
<path d="M4464 5625 c2 -36 6 -68 10 -72 4 -4 36 -8 71 -10 l65 -2 0 74 c0 73
-1 75 -24 75 -23 0 -25 -4 -28 -52 -3 -45 -6 -53 -23 -53 -17 0 -20 8 -23 53
-3 47 -5 52 -27 52 -23 0 -24 -2 -21 -65z"/>
<path d="M4650 5615 c0 -73 1 -75 25 -75 24 0 25 3 25 55 0 52 1 55 25 55 18
0 25 5 25 20 0 22 -19 27 -37 9 -8 -8 -13 -8 -17 0 -4 6 -16 11 -27 11 -17 0
-19 -7 -19 -75z"/>
<path d="M6420 5620 c0 -6 23 -24 51 -42 46 -28 109 -97 109 -120 0 -4 -12 -9
-27 -9 -23 -1 -20 -3 12 -10 22 -4 74 -13 115 -19 41 -6 83 -14 94 -17 11 -3
16 -1 12 5 -3 5 -39 13 -78 17 -83 8 -118 19 -118 36 0 22 -49 77 -110 123
-33 25 -60 41 -60 36z"/>
<path d="M6385 5426 c-95 -27 -131 -41 -139 -54 -3 -6 11 -2 31 8 32 14 139
44 228 63 12 3 8 5 -10 5 -16 0 -66 -10 -110 -22z"/>
<path d="M3862 5392 c-18 -15 -32 -31 -32 -36 0 -4 16 6 35 23 20 17 38 31 41
31 3 0 19 -13 37 -29 l31 -30 -12 -58 c-13 -65 -7 -100 36 -196 l25 -59 -27
-22 c-26 -20 -27 -25 -21 -68 4 -26 13 -52 21 -58 16 -14 125 -30 118 -18 -3
4 -20 8 -37 9 -69 2 -81 11 -89 64 -7 46 -5 52 19 71 l27 21 -32 76 c-34 81
-38 112 -28 192 6 46 5 52 -23 83 -37 39 -47 39 -89 4z"/>
<path d="M6220 5334 c0 -19 5 -24 25 -24 18 0 25 5 25 19 0 12 -9 20 -25 23
-21 4 -25 1 -25 -18z"/>
<path d="M6470 5245 c0 -105 0 -105 24 -105 23 0 25 4 28 53 3 45 6 52 26 55
21 3 22 0 22 -52 0 -53 1 -56 25 -56 24 0 25 3 25 59 0 41 -5 65 -16 75 -18
19 -55 21 -72 4 -9 -9 -12 -3 -12 30 0 38 -2 42 -25 42 l-25 0 0 -105z"/>
<path d="M5884 5240 l1 -100 28 0 c24 0 27 3 27 35 0 19 4 35 9 35 5 0 19 -16
31 -35 18 -29 27 -35 56 -35 l35 0 -20 28 c-11 15 -29 38 -40 52 l-20 26 35
43 c19 24 34 45 34 47 0 2 -10 4 -22 4 -12 0 -38 -18 -60 -40 l-38 -41 0 41
c0 37 -2 40 -28 40 l-29 0 1 -100z"/>
<path d="M6165 5287 c-11 -6 -32 -10 -47 -8 l-28 3 0 -71 c0 -64 2 -71 20 -71
23 0 24 -4 10 -31 -6 -10 -8 -19 -6 -19 3 0 13 14 22 32 12 22 15 46 11 82 -3
33 -2 44 3 31 7 -15 9 -16 9 -4 1 9 10 19 20 22 11 2 19 12 17 21 -3 23 -9 26
-31 13z"/>
<path d="M3216 5271 c-11 -12 -29 -22 -40 -22 -18 -1 -19 -2 -3 -6 11 -3 29 5
43 18 20 19 29 21 71 14 26 -4 61 -7 77 -7 16 1 37 -4 45 -11 14 -11 14 -10 2
5 -8 11 -26 17 -45 17 -17 -1 -53 2 -81 6 -44 6 -52 4 -69 -14z"/>
<path d="M6220 5215 c0 -73 1 -75 25 -75 24 0 25 2 25 75 0 73 -1 75 -25 75
-24 0 -25 -2 -25 -75z"/>
<path d="M6332 5283 c-18 -7 -33 -39 -26 -57 3 -9 24 -21 45 -26 21 -6 39 -15
39 -20 0 -13 -46 -13 -71 0 -16 9 -19 7 -19 -9 0 -34 77 -44 118 -15 41 29 22
65 -41 79 -15 3 -25 10 -22 15 9 14 49 12 63 -2 7 -7 13 -9 13 -5 5 25 4 33
-6 39 -11 9 -73 9 -93 1z"/>
<path d="M6660 5215 c0 -73 1 -75 24 -75 23 0 25 4 28 53 3 45 6 52 26 55 21
3 22 0 22 -52 0 -53 1 -56 25 -56 24 0 25 3 25 59 0 41 -5 65 -16 75 -18 19
-55 21 -72 4 -9 -9 -12 -9 -12 0 0 7 -11 12 -25 12 -24 0 -25 -2 -25 -75z"/>
<path d="M6860 5272 c0 -14 7 -17 40 -14 52 5 52 -13 0 -22 -54 -8 -76 -48
-45 -80 10 -10 35 -15 75 -15 l60 1 0 58 c0 74 -14 90 -81 90 -40 0 -49 -3
-49 -18z m80 -82 c0 -21 -33 -29 -45 -10 -9 15 4 30 26 30 12 0 19 -7 19 -20z"/>
<path d="M3101 5216 c-8 -10 -7 -24 4 -56 11 -32 12 -46 4 -56 -17 -20 -39
-17 -39 5 0 29 -34 65 -53 58 -13 -5 -17 -19 -17 -62 0 -50 -3 -58 -32 -84
-36 -32 -94 -49 -111 -32 -6 6 -18 11 -27 11 -9 0 -33 18 -53 40 -42 47 -73
51 -105 15 -26 -30 -38 -31 -120 -5 -83 26 -108 25 -148 -5 -18 -14 -42 -25
-53 -25 -11 0 -26 -9 -34 -21 -13 -17 -18 -19 -37 -9 -30 16 -47 -1 -52 -54
-1 -24 0 -42 5 -39 4 2 7 17 7 33 0 50 8 60 38 49 23 -9 29 -7 41 10 7 12 22
21 32 21 10 0 35 11 55 25 32 22 44 25 83 19 25 -4 63 -13 85 -20 55 -20 73
-17 102 11 34 34 58 31 96 -11 66 -72 134 -79 201 -21 35 31 37 36 37 91 0 48
3 57 17 54 9 -2 22 -19 28 -38 9 -26 18 -35 34 -34 19 1 21 -4 21 -61 0 -69
-5 -77 -78 -129 -71 -51 -82 -76 -82 -183 0 -57 -6 -102 -17 -131 -15 -40 -15
-46 0 -78 11 -22 15 -50 12 -81 l-4 -48 9 45 c8 36 7 52 -6 82 -16 35 -16 41
0 81 10 27 16 73 16 126 0 105 16 139 84 185 29 19 58 41 64 48 15 19 18 196
3 232 -9 21 -9 32 0 42 6 8 9 14 6 14 -2 0 -10 -6 -16 -14z"/>
<path d="M4433 5179 c-26 -26 -15 -87 27 -156 40 -67 50 -106 29 -119 -27 -16
-86 -22 -142 -13 -75 12 -94 -1 -99 -71 -1 -26 0 -46 5 -43 4 2 7 24 7 47 0
61 15 71 86 56 94 -20 164 5 164 57 0 13 -18 54 -40 90 -39 65 -50 112 -32
141 7 10 21 9 71 -4 35 -8 65 -13 68 -11 2 3 -17 10 -44 16 -26 6 -57 13 -68
16 -11 3 -26 0 -32 -6z"/>
<path d="M4630 5110 c5 -18 12 -35 16 -39 9 -9 -7 53 -17 63 -5 5 -4 -5 1 -24z"/>
<path d="M4922 5053 c-28 -14 -39 -15 -77 -5 -51 14 -94 15 -112 4 -6 -4 12
-7 40 -8 29 0 68 -4 88 -8 27 -6 46 -4 72 9 27 13 40 14 56 6 11 -6 39 -11 63
-11 24 0 49 -5 56 -12 20 -20 14 -54 -12 -68 -25 -13 -36 -37 -36 -81 0 -30
15 -39 64 -39 31 0 35 -4 53 -52 l21 -53 -24 -13 c-43 -23 -25 -21 38 4 54 21
101 47 55 31 -59 -21 -61 -20 -82 35 -20 51 -22 53 -65 58 l-45 5 1 39 c1 30
8 44 28 59 30 22 34 57 9 79 -10 9 -40 18 -68 21 -27 2 -59 7 -70 10 -11 4
-35 -1 -53 -10z"/>
<path d="M4688 5033 c7 -3 16 -2 19 1 4 3 -2 6 -13 5 -11 0 -14 -3 -6 -6z"/>
<path d="M6052 4962 c-2 -27 -12 -43 -52 -79 -28 -25 -55 -54 -61 -65 -5 -10
20 11 56 47 58 59 66 70 62 98 l-4 32 -1 -33z"/>
<path d="M828 4901 c-27 -4 -53 -12 -60 -19 -7 -7 -24 -12 -38 -12 -29 0 -74
-42 -108 -103 -24 -41 -22 -57 6 -57 14 0 15 2 3 9 -34 21 52 141 100 141 11
0 32 6 47 14 41 20 122 27 183 15 30 -6 88 -12 129 -14 41 -2 95 -9 120 -15
25 -6 65 -13 90 -15 l45 -4 -40 9 c-22 5 -60 14 -85 20 -25 6 -81 13 -125 15
-44 2 -100 8 -125 14 -49 11 -71 12 -142 2z"/>
<path d="M2160 4847 c-17 -9 -26 -22 -27 -42 l-2 -30 9 30 c6 20 20 35 37 42
16 6 24 11 18 12 -5 0 -21 -5 -35 -12z"/>
<path d="M1350 4846 c0 -2 11 -6 25 -8 13 -3 22 -1 19 3 -5 9 -44 13 -44 5z"/>
<path d="M5732 4830 c0 -14 2 -19 5 -12 2 6 2 18 0 25 -3 6 -5 1 -5 -13z"/>
<path d="M1718 4814 c-18 -18 -77 -22 -158 -10 -25 4 -57 3 -70 -2 -19 -7 -9
-9 37 -7 35 2 65 -1 68 -6 9 -14 77 -10 105 6 14 8 31 17 38 21 7 3 27 -1 46
-10 19 -9 46 -16 62 -16 39 0 24 11 -21 15 -21 2 -42 8 -48 14 -16 16 -40 14
-59 -5z"/>
<path d="M1911 4801 c-23 -32 -27 -46 -10 -36 5 4 14 18 19 31 11 29 26 31 35
5 3 -11 13 -25 21 -32 10 -8 7 1 -6 24 -12 20 -26 37 -30 37 -5 0 -18 -13 -29
-29z"/>
<path d="M5340 4780 c-68 -22 -60 -25 17 -5 67 18 135 19 166 4 21 -10 21 -10
3 5 -27 22 -116 20 -186 -4z"/>
<path d="M5713 4775 c-3 -9 -3 -18 -1 -21 3 -3 8 4 11 16 6 23 -1 27 -10 5z"/>
<path d="M2090 4763 c-14 -3 -30 -9 -37 -15 -7 -5 -22 -7 -35 -3 -18 5 -20 4
-8 -4 19 -14 50 -14 50 -1 0 6 13 10 29 10 17 0 33 5 36 10 3 6 3 9 -2 9 -4
-1 -19 -4 -33 -6z"/>
<path d="M5561 4755 c26 -32 30 -55 15 -77 -13 -19 -13 -25 5 -59 27 -53 49
-62 138 -57 62 4 84 10 119 33 42 29 42 29 36 77 -5 36 -2 55 10 75 l17 28
-21 -25 c-19 -21 -21 -33 -16 -75 l6 -50 -42 -24 c-29 -17 -63 -25 -112 -29
l-69 -5 6 44 c4 29 3 37 -3 24 -5 -11 -9 -30 -9 -43 -1 -20 -3 -21 -21 -10
-27 17 -47 82 -31 101 14 18 1 56 -25 77 -18 14 -18 14 -3 -5z"/>
<path d="M4192 4588 c3 -97 4 -103 25 -106 20 -3 22 2 25 50 3 46 6 53 26 56
21 3 22 0 22 -52 0 -53 1 -56 25 -56 24 0 25 3 25 59 0 41 -5 65 -16 75 -18
19 -55 21 -72 4 -9 -9 -12 -3 -12 30 0 38 -2 42 -25 42 l-26 0 3 -102z"/>
<path d="M5665 4679 c-4 -6 -5 -12 -2 -15 2 -3 7 2 10 11 7 17 1 20 -8 4z"/>
<path d="M631 4649 c-16 -46 -14 -66 9 -72 12 -3 20 -14 20 -25 0 -12 14 -30
30 -42 45 -32 38 -67 -8 -39 -15 9 -24 8 -44 -5 -28 -18 -39 -54 -37 -120 1
-31 4 -24 10 27 5 48 13 73 26 83 22 16 40 18 48 4 11 -17 45 -11 45 8 0 23
-10 37 -37 51 -13 6 -23 20 -23 31 0 10 -10 26 -22 34 -20 14 -21 19 -10 53
14 46 8 56 -7 12z"/>
<path d="M3168 4580 c3 -98 4 -100 28 -100 21 0 24 5 24 35 0 32 3 35 29 35
60 0 100 71 61 110 -16 16 -33 20 -82 20 l-63 0 3 -100z m107 35 c0 -14 -8
-21 -27 -23 -24 -3 -28 0 -28 23 0 23 4 26 28 23 19 -2 27 -9 27 -23z"/>
<path d="M3670 4580 l0 -100 25 0 c21 0 25 5 25 30 0 17 4 30 9 30 6 0 18 -13
28 -30 11 -19 25 -30 40 -30 29 0 29 7 -2 52 -20 30 -22 38 -11 47 8 7 16 21
19 31 8 33 -28 24 -57 -12 l-26 -33 0 58 c0 54 -1 57 -25 57 l-25 0 0 -100z"/>
<path d="M5085 4670 c-3 -6 1 -7 9 -4 18 7 21 14 7 14 -6 0 -13 -4 -16 -10z"/>
<path d="M5047 4646 c-93 -71 -156 -147 -171 -206 -3 -14 5 -2 19 25 28 57 57
90 130 152 47 40 61 58 22 29z"/>
<path d="M3360 4555 c0 -73 1 -75 25 -75 24 0 25 3 25 54 0 52 1 55 27 58 16
2 27 10 29 21 3 19 -9 22 -36 7 -13 -7 -21 -7 -25 0 -3 5 -15 10 -26 10 -17 0
-19 -7 -19 -75z"/>
<path d="M3500 4611 c0 -17 5 -18 41 -14 33 5 41 3 37 -8 -2 -7 -17 -15 -32
-16 -34 -2 -56 -20 -56 -43 0 -30 32 -48 88 -49 l52 0 0 59 c0 74 -14 90 -81
90 -42 0 -49 -3 -49 -19z m80 -81 c0 -15 -7 -20 -25 -20 -24 0 -34 18 -18 33
15 15 43 7 43 -13z"/>
<path d="M3860 4613 c0 -16 6 -18 40 -15 53 5 51 -11 -4 -26 -50 -13 -63 -35
-41 -68 13 -20 23 -23 75 -23 l60 1 0 56 c0 31 -4 63 -9 71 -5 8 -32 16 -65
19 -50 4 -56 2 -56 -15z m85 -83 c0 -9 -11 -16 -27 -18 -23 -3 -28 1 -28 18 0
17 5 21 28 18 16 -2 27 -9 27 -18z"/>
<path d="M4048 4619 c-11 -6 -18 -22 -18 -39 0 -26 5 -31 40 -40 54 -14 53
-35 -1 -26 -35 6 -40 4 -37 -11 2 -13 14 -19 40 -21 52 -4 78 12 78 49 0 30
-3 33 -53 43 -15 4 -25 11 -22 16 9 14 49 12 64 -2 10 -11 12 -8 9 12 -3 21
-9 25 -43 27 -22 2 -48 -2 -57 -8z"/>
<path d="M4413 4623 c-38 -7 -26 -23 17 -23 53 0 51 -15 -2 -26 -39 -8 -43
-12 -46 -43 -4 -43 7 -50 80 -50 l58 1 0 56 c0 31 -4 63 -8 70 -10 14 -65 23
-99 15z m57 -93 c0 -21 -33 -29 -45 -10 -9 15 4 30 26 30 12 0 19 -7 19 -20z"/>
<path d="M4560 4555 c0 -73 1 -75 24 -75 23 0 25 4 28 53 3 45 6 52 26 55 21
3 22 0 22 -52 0 -53 1 -56 24 -56 23 0 25 4 28 53 3 45 6 52 26 55 21 3 22 0
22 -52 0 -53 1 -56 25 -56 24 0 25 3 25 59 0 80 -28 109 -80 81 -13 -7 -27 -6
-44 2 -20 8 -32 8 -51 0 -15 -7 -25 -8 -25 -2 0 6 -11 10 -25 10 -24 0 -25 -2
-25 -75z"/>
<path d="M2400 4385 l0 -105 25 0 25 0 0 105 0 105 -25 0 -25 0 0 -105z"/>
<path d="M1308 4423 c-1 -32 -3 -77 -4 -100 -2 -41 -1 -43 27 -43 26 0 29 3
29 35 0 19 4 35 9 35 5 0 19 -16 31 -35 18 -29 27 -35 58 -35 l35 0 -19 23
c-11 12 -29 36 -41 54 l-22 31 40 46 41 46 -35 0 c-29 0 -39 -6 -63 -42 l-29
-42 -3 42 c-3 37 -6 42 -28 42 -22 0 -24 -4 -26 -57z"/>
<path d="M1510 4371 c0 -41 5 -65 16 -75 18 -18 55 -21 71 -5 8 8 13 8 17 0 4
-6 16 -11 27 -11 17 0 19 7 19 75 0 73 -1 75 -24 75 -23 0 -25 -4 -28 -52 -3
-45 -6 -53 -23 -53 -17 0 -20 8 -23 53 -3 48 -5 52 -28 52 -23 0 -24 -3 -24
-59z"/>
<path d="M1700 4355 c0 -73 1 -75 25 -75 24 0 25 3 25 55 0 52 1 55 25 55 18
0 25 5 25 20 0 22 -20 26 -38 8 -9 -9 -12 -9 -12 0 0 7 -11 12 -25 12 -24 0
-25 -2 -25 -75z"/>
<path d="M1830 4355 c0 -73 1 -75 24 -75 23 0 25 4 28 53 3 44 6 52 23 52 17
0 20 -8 23 -52 3 -49 5 -53 28 -53 23 0 24 3 24 59 0 41 -5 65 -16 75 -18 19
-55 21 -72 4 -9 -9 -12 -9 -12 0 0 7 -11 12 -25 12 -24 0 -25 -2 -25 -75z"/>
<path d="M2041 4413 c-32 -26 -32 -90 -1 -115 49 -40 140 -6 140 52 0 41 -29
70 -75 77 -30 4 -46 0 -64 -14z m80 -37 c21 -45 -27 -91 -50 -48 -5 9 -9 22
-9 27 0 20 19 45 34 45 8 0 19 -11 25 -24z"/>
<path d="M2225 4405 c-14 -13 -25 -36 -25 -50 0 -60 85 -96 138 -59 32 22 32
96 0 118 -34 24 -85 20 -113 -9z m92 -21 c10 -26 -10 -69 -31 -69 -29 0 -42
28 -28 59 13 29 49 35 59 10z"/>
<path d="M4861 4384 c0 -11 3 -14 6 -6 3 7 2 16 -1 19 -3 4 -6 -2 -5 -13z"/>
<path d="M4851 4345 c0 -12 -6 -26 -12 -32 -6 -6 -15 -30 -20 -54 -6 -24 -20
-55 -33 -69 -26 -29 -86 -110 -69 -95 39 36 105 131 110 158 3 17 12 42 20 55
8 13 12 31 10 40 -4 13 -5 12 -6 -3z"/>
<path d="M534 4278 c-4 -6 0 -16 9 -23 32 -23 66 -84 72 -130 4 -25 10 -47 14
-50 4 -2 3 20 -2 50 -7 37 -22 70 -48 104 l-38 50 32 4 32 4 -32 1 c-17 1 -35
-3 -39 -10z"/>
<path d="M2920 4243 c-6 -27 -25 -79 -42 -117 l-30 -69 26 -181 c14 -99 26
-187 26 -194 0 -7 -13 -25 -30 -40 -27 -25 -32 -40 -39 -109 -2 -19 -161 -15
-184 5 -22 20 -46 8 -59 -28 -8 -24 -7 -24 7 -6 8 11 15 23 15 28 0 14 27 9
40 -7 8 -10 29 -15 59 -15 25 1 64 1 85 0 21 0 40 1 42 3 2 2 7 25 10 51 5 34
15 56 37 77 32 32 32 29 11 181 l-7 47 39 -4 39 -5 -42 11 c-34 8 -43 14 -42
32 0 12 -3 56 -6 97 -6 68 -4 82 23 150 30 74 48 140 39 140 -3 0 -10 -21 -17
-47z"/>
<path d="M650 4037 c0 -5 11 -6 25 -3 21 5 27 2 35 -20 6 -14 18 -28 28 -30
17 -5 47 -54 33 -54 -4 0 -16 -7 -27 -15 -18 -14 -18 -15 10 -38 19 -16 29
-32 29 -52 0 -22 1 -25 9 -11 5 9 6 21 2 28 -5 7 1 9 17 5 13 -3 63 -12 111
-18 81 -12 89 -12 107 5 24 22 64 86 53 86 -4 0 -19 -21 -34 -45 -18 -30 -34
-45 -48 -45 -53 0 -215 33 -236 48 -30 22 -30 26 1 40 25 11 34 32 15 32 -5 0
-10 7 -10 15 0 9 -11 20 -24 25 -14 5 -26 19 -28 32 -2 19 -9 23 -35 23 -18 1
-33 -3 -33 -8z"/>
<path d="M4677 4010 c-23 -54 -21 -65 4 -15 10 21 18 43 17 47 -2 5 -11 -10
-21 -32z"/>
<path d="M1255 3920 c-21 -16 -39 -30 -41 -30 -1 0 -23 9 -49 20 -59 25 -84
26 -29 1 73 -33 78 -33 119 -1 41 33 85 40 85 15 0 -19 44 -65 62 -65 7 0 26
17 42 38 l29 37 -35 -33 c-41 -39 -62 -35 -83 14 -18 44 -49 45 -100 4z"/>
<path d="M3090 3900 c-32 -28 -56 -40 -85 -43 l-40 -4 42 -1 c36 -2 49 4 88
38 25 22 50 40 55 40 5 0 16 -13 25 -30 19 -36 43 -50 89 -50 19 0 47 -5 63
-11 21 -8 25 -7 17 1 -7 7 -40 15 -74 19 -61 8 -90 26 -90 57 0 11 -22 24 -38
24 -4 0 -27 -18 -52 -40z"/>
<path d="M4662 3895 c-1 -16 -13 -57 -27 -90 -18 -45 -25 -79 -25 -133 l0 -74
-42 6 -43 5 43 -11 c23 -6 42 -17 42 -24 0 -7 3 -15 8 -17 4 -3 7 43 7 101 0
92 3 114 23 154 15 30 22 59 19 80 l-4 33 -1 -30z"/>
<path d="M1486 3900 c5 -8 21 -25 36 -39 16 -13 36 -37 45 -55 26 -51 50 -59
72 -23 l14 22 -23 -20 -22 -20 -17 24 c-21 31 -115 131 -105 111z"/>
<path d="M1755 3841 c-6 -5 -26 -14 -45 -19 -29 -8 -31 -10 -10 -11 14 0 36 6
50 14 35 20 38 19 42 -12 3 -24 8 -28 40 -31 27 -2 39 -9 43 -23 4 -11 9 -18
12 -16 2 3 0 15 -7 26 -8 15 -20 21 -45 21 -32 0 -35 2 -35 30 0 22 -5 30 -18
30 -10 0 -22 -4 -27 -9z"/>
<path d="M3366 3783 c4 -16 -2 -29 -19 -45 -24 -22 -25 -25 -18 -125 5 -70 12
-108 23 -120 22 -25 38 -79 38 -127 0 -23 12 -63 25 -91 17 -34 25 -67 25
-103 0 -61 15 -94 60 -137 18 -16 43 -54 56 -83 13 -30 47 -79 76 -110 60 -67
94 -135 113 -229 8 -41 13 -56 14 -38 1 47 -26 140 -54 184 -13 22 -45 63 -70
90 -46 53 -75 100 -75 124 0 7 -16 29 -36 48 -47 45 -74 102 -74 158 0 25 -10
66 -21 91 -12 25 -25 76 -30 113 -5 40 -18 85 -33 110 -21 35 -25 57 -27 130
-3 123 1 126 145 129 l111 2 -106 3 c-98 3 -107 5 -118 26 l-11 22 6 -22z"/>
<path d="M750 3783 c0 -5 7 -16 14 -26 13 -17 14 -16 12 7 0 15 -7 26 -13 26
-7 0 -13 -3 -13 -7z"/>
<path d="M3645 3775 c-32 -12 -34 -14 -10 -10 17 2 39 7 51 10 13 4 37 -5 72
-29 29 -20 75 -52 104 -72 51 -35 86 -39 112 -13 6 5 -2 5 -20 0 -39 -11 -65
0 -148 64 -82 62 -106 69 -161 50z"/>
<path d="M2268 3711 c-1 -33 0 -57 5 -54 4 2 7 27 7 55 l0 51 45 -6 c26 -2 48
-7 51 -10 3 -3 8 -23 11 -44 4 -28 1 -42 -11 -52 -21 -18 -20 -55 2 -72 14
-11 15 -11 5 1 -18 19 -16 55 3 71 21 17 13 88 -12 106 -10 7 -37 13 -60 13
l-42 0 -4 -59z"/>
<path d="M751 3717 c-6 -8 -14 -30 -18 -51 -6 -26 -17 -43 -40 -57 l-31 -20
-20 21 c-17 19 -26 21 -68 14 -27 -4 -51 -7 -54 -7 -3 1 -14 4 -25 8 -13 4
-11 1 6 -9 20 -12 34 -13 68 -4 38 10 44 9 62 -11 11 -11 24 -21 30 -21 22 0
79 53 79 74 0 11 7 33 14 49 16 29 15 35 -3 14z"/>
<path d="M1878 3718 c-2 -7 -1 -26 3 -43 6 -28 7 -26 8 13 1 42 -3 53 -11 30z"/>
<path d="M272 3708 c-14 -14 -15 -54 -2 -83 6 -13 7 -4 3 27 -5 38 -2 49 10
54 17 6 71 -26 98 -58 11 -15 25 -18 55 -15 l39 4 -42 1 c-24 1 -43 6 -43 12
0 10 -83 70 -97 70 -5 0 -14 -5 -21 -12z"/>
<path d="M4187 3688 c-5 -22 -14 -38 -25 -41 -16 -4 -16 -5 1 -6 19 -1 40 41
34 68 -2 9 -6 -1 -10 -21z"/>
<path d="M4278 3693 c5 -21 7 -23 10 -9 2 10 0 22 -6 28 -6 6 -7 0 -4 -19z"/>
<path d="M4013 3690 c-35 -14 -27 -19 11 -8 29 9 40 8 71 -11 21 -12 40 -20
42 -17 6 6 -72 46 -89 45 -7 0 -23 -4 -35 -9z"/>
<path d="M2523 3672 c-25 -4 -53 -38 -52 -62 0 -8 7 0 15 18 11 26 20 32 44
32 36 0 38 -15 10 -70 -28 -56 -24 -64 5 -10 37 68 29 101 -22 92z"/>
<path d="M4407 3667 c-8 -7 -23 -30 -31 -52 -13 -34 -14 -37 -1 -21 8 11 15
25 15 32 0 7 7 20 16 29 15 15 18 15 41 -1 14 -9 22 -11 19 -5 -14 22 -43 31
-59 18z"/>
<path d="M4282 3630 c0 -19 2 -27 5 -17 2 9 2 25 0 35 -3 9 -5 1 -5 -18z"/>
<path d="M1890 3630 c0 -9 61 -63 65 -58 2 2 -12 17 -31 34 -18 17 -34 28 -34
24z"/>
<path d="M2208 3613 c-15 -14 -60 -38 -100 -53 -64 -23 -76 -25 -98 -13 -14 7
-32 12 -40 12 -8 0 1 -6 20 -13 35 -13 35 -13 33 -72 -1 -43 1 -52 7 -34 4 14
8 38 9 53 1 23 9 31 44 46 23 10 53 21 67 25 26 6 111 76 94 76 -5 0 -21 -12
-36 -27z"/>
<path d="M252 3588 c-7 -7 -12 -17 -12 -24 0 -18 56 -37 89 -31 27 6 29 3 35
-28 4 -19 2 -44 -4 -55 -6 -12 -8 -30 -5 -41 4 -11 1 -27 -6 -35 -8 -10 -9
-18 -2 -25 21 -21 3 -48 -36 -52 l-36 -4 38 -1 c31 -2 39 2 46 21 5 13 5 27
-1 35 -7 8 -7 17 2 27 6 8 9 23 6 33 -4 11 -2 31 4 44 8 16 8 36 3 59 -9 32
-11 34 -49 31 -50 -4 -85 18 -65 42 16 19 11 22 -7 4z"/>
<path d="M4304 3573 c20 -24 41 -29 51 -13 3 6 -1 7 -10 4 -9 -4 -26 2 -38 12
l-22 19 19 -22z"/>
<path d="M2408 3563 c7 -3 16 -2 19 1 4 3 -2 6 -13 5 -11 0 -14 -3 -6 -6z"/>
<path d="M2510 3519 c0 -21 35 -52 52 -46 9 4 7 6 -4 6 -10 1 -24 13 -32 29
-9 16 -15 21 -16 11z"/>
<path d="M4652 3460 c0 -19 2 -27 5 -17 2 9 2 25 0 35 -3 9 -5 1 -5 -18z"/>
<path d="M3950 3325 l0 -105 25 0 25 0 0 105 0 105 -25 0 -25 0 0 -105z"/>
<path d="M4040 3325 l0 -105 25 0 25 0 0 105 0 105 -25 0 -25 0 0 -105z"/>
<path d="M3546 3328 c2 -116 0 -108 24 -108 18 0 20 7 20 66 0 58 2 65 15 54
8 -7 15 -16 15 -21 0 -4 12 -29 27 -54 21 -34 34 -45 53 -45 l26 0 1 100 c1
98 0 100 -23 100 -21 0 -23 -5 -26 -52 l-3 -53 -33 53 c-29 45 -38 52 -66 52
l-33 0 3 -92z"/>
<path d="M4661 3372 c-1 -57 16 -142 29 -142 16 0 48 -65 55 -110 4 -25 16
-55 27 -67 18 -19 20 -30 14 -70 -4 -26 -11 -106 -16 -176 -6 -88 -15 -141
-29 -172 -11 -24 -17 -53 -14 -64 3 -12 1 -21 -6 -21 -8 0 -10 -34 -8 -113 3
-101 7 -123 37 -200 18 -48 35 -85 37 -83 3 2 -9 38 -26 79 -53 133 -53 252 0
425 11 35 19 92 19 129 0 37 5 106 11 154 11 83 10 89 -9 114 -12 15 -24 46
-27 70 -7 40 -15 57 -58 118 -11 15 -21 55 -26 103 -8 71 -8 74 -10 26z"/>
<path d="M1969 3362 c-53 -54 -62 -73 -49 -104 7 -19 9 -16 9 19 1 35 6 46 31
65 25 18 68 69 58 68 -2 -1 -24 -22 -49 -48z"/>
<path d="M3785 3345 c-51 -50 -13 -125 64 -125 52 0 71 8 71 31 0 20 -15 26
-25 9 -9 -15 -61 -12 -75 5 -11 13 -5 15 44 15 52 0 56 2 56 23 0 61 -89 88
-135 42z m83 -22 c2 -9 -7 -13 -27 -13 -30 0 -39 9 -24 24 11 10 46 3 51 -11z"/>
<path d="M4145 3345 c-14 -13 -25 -36 -25 -50 0 -37 42 -75 82 -75 54 0 78 24
78 75 0 34 -5 47 -22 59 -34 24 -85 20 -113 -9z m85 -20 c18 -22 3 -75 -21
-75 -27 0 -45 41 -30 69 14 24 33 27 51 6z"/>
<path d="M4320 3295 c0 -73 1 -75 25 -75 24 0 25 3 25 55 0 54 1 55 28 55 21
0 28 5 29 20 2 23 -26 27 -45 8 -9 -9 -12 -9 -12 0 0 7 -11 12 -25 12 -24 0
-25 -2 -25 -75z"/>
<path d="M4482 3363 c-7 -3 -19 -18 -27 -34 -30 -57 7 -110 75 -108 45 1 65
10 66 32 2 19 -11 23 -21 7 -9 -15 -61 -12 -75 5 -11 13 -5 15 44 15 53 0 56
1 56 25 0 49 -63 80 -118 58z m66 -40 c2 -9 -7 -13 -27 -13 -30 0 -39 9 -24
24 11 10 46 3 51 -11z"/>
<path d="M283 3231 c1 -40 -3 -57 -16 -66 -10 -7 -15 -19 -12 -28 4 -8 1 -34
-5 -57 -6 -24 -8 -46 -3 -51 5 -5 9 -1 10 9 5 72 13 115 25 130 10 12 12 31 7
67 l-7 50 1 -54z"/>
<path d="M422 3148 c-17 -51 -32 -96 -32 -100 0 -5 11 -8 24 -8 15 0 26 7 29
20 4 15 14 20 41 20 25 0 38 -6 46 -20 12 -22 50 -28 50 -7 -1 6 -15 50 -33
97 -30 79 -34 85 -62 88 -29 3 -31 1 -63 -90z m77 2 c9 -28 8 -30 -14 -30 -22
0 -23 2 -14 30 6 17 12 30 14 30 2 0 8 -13 14 -30z"/>
<path d="M1167 3203 c-7 -39 10 -145 25 -154 7 -5 25 -9 39 -9 34 0 47 27 16
32 -18 2 -23 11 -25 46 -3 37 -1 42 17 42 12 0 21 7 21 15 0 8 -9 15 -20 15
-13 0 -20 7 -20 20 0 33 -46 27 -53 -7z"/>
<path d="M2770 3175 c0 -26 -3 -33 -15 -29 -26 11 -82 -23 -88 -53 -12 -62 38
-113 84 -85 12 8 20 8 24 2 3 -6 15 -10 26 -10 18 0 19 8 19 105 l0 105 -25 0
c-22 0 -25 -4 -25 -35z m-2 -97 c-2 -35 -7 -43 -23 -43 -26 0 -44 47 -25 69 7
9 21 16 32 16 16 0 19 -6 16 -42z"/>
<path d="M2040 3193 c22 -10 9 -48 -24 -71 -18 -12 -44 -35 -57 -49 -26 -29
-9 -19 42 25 14 12 34 28 43 35 20 15 19 59 -2 63 -7 1 -8 0 -2 -3z"/>
<path d="M2287 3186 c-3 -7 -5 -52 -5 -100 l1 -86 29 0 c25 0 28 3 28 35 0 44
9 44 39 0 19 -29 30 -35 59 -35 38 0 39 -2 -20 68 l-28 33 22 31 c54 72 53 68
25 68 -16 0 -37 -14 -61 -40 l-36 -40 0 40 c0 36 -3 40 -24 40 -13 0 -26 -6
-29 -14z"/>
<path d="M610 3115 c0 -73 1 -75 24 -75 23 0 25 4 28 53 3 44 6 52 24 55 19 3
22 -3 29 -52 5 -46 10 -56 26 -56 17 0 19 7 19 59 0 80 -28 109 -80 81 -13 -7
-21 -7 -25 0 -3 5 -15 10 -26 10 -17 0 -19 -7 -19 -75z"/>
<path d="M817 3183 c-19 -18 -4 -28 34 -25 32 3 40 1 37 -9 -3 -8 -13 -15 -24
-17 -59 -9 -64 -12 -64 -41 0 -40 16 -50 83 -50 l57 0 0 64 c0 62 -1 63 -31
74 -36 12 -82 14 -92 4z m73 -93 c0 -15 -7 -20 -25 -20 -24 0 -34 18 -18 33
15 15 43 7 43 -13z"/>
<path d="M980 3115 c0 -73 1 -75 24 -75 23 0 25 4 28 53 3 45 6 52 26 55 21 3
22 0 22 -52 0 -53 1 -56 25 -56 24 0 25 3 25 59 0 41 -5 65 -16 75 -18 19 -24
19 -58 6 -17 -6 -26 -6 -26 0 0 6 -11 10 -25 10 -24 0 -25 -2 -25 -75z"/>
<path d="M1300 3170 c0 -18 3 -19 20 -10 21 11 60 5 60 -9 0 -4 -20 -12 -45
-19 -38 -10 -45 -16 -45 -36 0 -39 24 -55 85 -55 l55 0 0 58 c0 72 -17 91 -83
91 -41 0 -47 -3 -47 -20z m80 -80 c0 -21 -33 -29 -45 -10 -9 15 4 30 26 30 12
0 19 -7 19 -20z"/>
<path d="M1472 3089 c1 -97 2 -99 25 -99 19 0 23 5 23 28 0 26 3 28 29 24 23
-3 36 3 57 23 22 22 25 32 20 63 -7 49 -25 60 -96 60 l-59 0 1 -99z m106 38
c4 -33 -13 -57 -39 -57 -15 0 -19 7 -19 38 0 45 6 54 35 50 14 -2 21 -12 23
-31z"/>
<path d="M1660 3132 c0 -76 15 -90 93 -90 l57 0 0 74 c0 72 -1 74 -25 74 -24
0 -25 -3 -25 -56 0 -52 -1 -55 -22 -52 -20 3 -23 10 -26 56 -3 48 -5 52 -28
52 -23 0 -24 -3 -24 -58z"/>
<path d="M1850 3115 c0 -73 1 -75 25 -75 24 0 25 3 25 55 0 54 0 55 30 55 19
0 30 5 30 14 0 22 -17 28 -40 16 -13 -7 -20 -7 -20 0 0 5 -11 10 -25 10 -24 0
-25 -2 -25 -75z"/>
<path d="M2500 3132 c0 -14 7 -17 40 -14 50 5 52 -11 3 -24 -47 -12 -62 -34
-43 -69 12 -22 20 -25 54 -24 73 2 76 5 76 64 0 69 -15 85 -81 85 -40 0 -49
-3 -49 -18z m80 -77 c0 -9 -7 -18 -16 -22 -18 -7 -39 11 -30 26 11 17 46 13
46 -4z"/>
<path d="M2870 3135 c-11 -13 -6 -15 34 -15 58 0 60 -14 4 -26 -40 -8 -43 -11
-46 -45 -3 -34 -1 -37 30 -42 18 -2 50 -5 72 -6 l38 -2 -4 66 c-3 43 -9 70
-19 76 -23 14 -95 11 -109 -6z m80 -80 c0 -9 -7 -18 -16 -22 -18 -7 -39 11
-30 26 11 17 46 13 46 -4z"/>
<path d="M3042 3052 c3 -89 5 -97 23 -97 14 0 21 8 23 26 3 22 7 25 32 21 42
-6 70 27 70 83 0 54 -12 62 -93 63 l-58 0 3 -96z m104 41 c8 -32 -6 -57 -35
-61 -18 -3 -21 1 -21 36 0 43 5 52 31 52 12 0 21 -10 25 -27z"/>
<path d="M3242 3138 c-21 -21 -13 -28 27 -22 24 4 41 2 45 -5 4 -7 -1 -11 -13
-11 -33 0 -69 -21 -75 -44 -10 -34 26 -56 87 -53 l52 2 0 63 c0 45 -5 66 -15
72 -21 14 -94 12 -108 -2z m78 -83 c0 -9 -7 -18 -16 -22 -18 -7 -39 11 -30 26
11 17 46 13 46 -4z"/>
<path d="M1926 3013 c-6 -14 -5 -15 5 -6 7 7 10 15 7 18 -3 3 -9 -2 -12 -12z"/>
<path d="M277 2978 c11 -20 30 -35 49 -40 19 -5 35 -18 45 -37 l14 -30 40 20
c31 15 45 17 63 10 26 -12 29 -33 7 -51 -11 -9 -14 -22 -10 -42 7 -29 0 -34
-25 -18 -19 11 -60 -25 -60 -53 0 -28 38 -77 60 -77 10 0 26 -8 35 -17 16 -16
16 -17 -4 -25 -25 -9 -26 -16 -5 -46 11 -17 24 -22 52 -20 l37 1 -35 4 c-44 5
-85 53 -46 53 8 0 18 5 22 12 9 14 -31 48 -56 48 -20 0 -50 40 -50 67 0 27 33
53 54 41 24 -14 38 0 31 31 -4 19 -1 32 10 41 22 18 19 37 -10 56 -23 15 -28
15 -59 0 -45 -21 -51 -20 -64 9 -8 16 -23 28 -42 32 -20 4 -36 16 -46 34 -8
16 -17 29 -20 29 -3 0 3 -14 13 -32z"/>
<path d="M1907 2953 c-4 -3 -7 -20 -7 -36 0 -22 11 -40 43 -71 57 -54 174
-126 262 -160 164 -64 185 -76 185 -107 0 -15 11 -54 24 -86 14 -32 32 -103
41 -157 l16 -99 -33 -35 c-18 -19 -52 -43 -75 -53 -54 -23 -57 -33 -4 -12 21
8 56 32 76 52 l38 37 31 -34 c33 -35 66 -37 66 -3 0 16 37 41 60 41 6 0 10
-18 10 -39 0 -44 14 -62 69 -90 20 -11 49 -33 65 -50 34 -36 48 -37 96 -11 42
23 32 27 -12 4 -30 -15 -32 -15 -72 15 -22 17 -57 40 -77 50 -48 26 -57 39
-61 86 -4 53 -33 59 -77 14 -31 -31 -32 -31 -54 -13 -33 28 -33 28 -51 137
-10 56 -29 131 -42 166 -14 35 -24 73 -22 84 4 26 -28 45 -170 103 -112 46
-220 107 -281 161 -30 26 -36 37 -36 72 0 23 0 41 -1 41 0 0 -4 -3 -7 -7z"/>
<path d="M724 2673 c-3 -10 -10 -28 -15 -41 -5 -13 -9 -40 -9 -62 0 -21 -5
-41 -10 -43 -6 -3 -5 -4 2 -3 7 1 16 24 20 52 9 66 19 104 28 104 4 0 29 -7
56 -15 61 -18 66 -18 90 0 18 14 17 15 -7 4 -20 -8 -38 -7 -79 5 -67 20 -69
20 -76 -1z"/>
<path d="M911 2653 c-1 -36 7 -44 64 -58 27 -7 41 -16 44 -30 2 -11 9 -24 16
-30 7 -5 15 -19 17 -30 3 -14 10 -19 23 -17 27 5 27 5 17 43 -4 19 -17 39 -28
44 -27 14 -22 75 7 75 11 0 34 -15 51 -32 28 -30 29 -31 13 -5 -33 51 -95 66
-95 23 0 -38 -10 -58 -24 -46 -7 5 -30 13 -52 18 -34 7 -40 12 -45 42 l-6 35
-2 -32z m171 -119 c5 -19 3 -31 -5 -36 -8 -5 -13 -1 -15 12 -2 10 -10 24 -18
30 -8 7 -14 19 -14 26 0 25 44 -1 52 -32z"/>
<path d="M1183 2597 c10 -8 17 -28 17 -47 0 -20 10 -46 25 -65 13 -18 21 -35
18 -39 -4 -3 -1 -6 5 -6 18 0 14 14 -13 46 -17 20 -25 41 -25 66 0 29 -5 40
-22 48 -21 10 -21 10 -5 -3z"/>
<path d="M634 2544 c9 -8 16 -20 16 -26 0 -6 3 -9 6 -6 8 9 -14 48 -27 48 -6
0 -3 -7 5 -16z"/>
<path d="M3766 2497 c20 -184 24 -236 24 -350 0 -108 3 -133 20 -164 11 -21
20 -31 20 -23 0 8 -7 24 -15 34 -17 22 -21 141 -6 131 5 -3 12 -1 16 5 9 15
112 12 145 -5 15 -8 38 -30 50 -50 12 -19 24 -35 27 -35 13 0 -39 68 -69 88
-28 20 -43 23 -101 20 -80 -4 -73 -16 -82 152 -3 63 -12 144 -20 180 -11 52
-13 55 -9 17z"/>
<path d="M479 2473 c-12 -16 -12 -17 2 -5 13 10 19 9 29 -3 7 -8 26 -15 42
-15 25 0 29 -3 23 -17 -16 -43 -16 -72 -1 -94 9 -13 16 -18 16 -12 0 7 -5 15
-11 19 -11 6 -8 40 7 92 6 20 3 22 -27 22 -18 0 -40 7 -49 15 -15 14 -19 14
-31 -2z"/>
<path d="M1099 2461 c-28 -11 -99 -74 -99 -88 0 -10 5 -11 19 -3 11 5 28 10
37 10 14 0 15 -3 6 -12 -7 -7 -12 -16 -12 -22 0 -12 29 25 30 38 0 5 -16 6
-36 3 l-36 -6 38 34 c41 36 48 38 104 35 19 -1 32 2 28 6 -10 9 -60 12 -79 5z"/>
<path d="M426 2453 c-17 -17 -3 -44 29 -57 19 -8 35 -21 35 -29 0 -8 12 -22
28 -31 l27 -17 -22 19 c-12 11 -20 22 -17 25 7 7 -46 47 -62 47 -8 0 -14 9
-14 20 0 13 5 18 15 14 8 -4 15 -4 15 -1 0 8 -28 16 -34 10z"/>
<path d="M1198 2443 c7 -3 16 -2 19 1 4 3 -2 6 -13 5 -11 0 -14 -3 -6 -6z"/>
<path d="M475 2290 c-9 -14 21 -59 43 -67 27 -9 52 -35 46 -45 -4 -5 9 -22 27
-38 l34 -27 -29 -53 c-16 -29 -24 -50 -19 -47 6 4 16 20 23 37 7 16 16 30 21
30 20 0 7 40 -19 62 -16 13 -27 29 -24 36 5 16 -26 52 -45 52 -15 0 -53 35
-53 49 0 5 10 12 23 14 22 4 22 4 0 6 -12 0 -25 -4 -28 -9z"/>
<path d="M645 2287 c66 -11 70 -14 73 -40 4 -31 22 -43 50 -32 9 4 37 9 62 11
81 6 98 9 105 16 4 3 21 -8 38 -26 28 -28 32 -39 32 -87 0 -51 1 -54 25 -53
14 1 30 -6 37 -15 11 -14 14 -14 35 6 21 22 21 24 5 40 -16 16 -16 18 1 36 16
19 16 20 -5 8 -27 -14 -28 -19 -7 -43 14 -14 14 -20 4 -33 -16 -19 -30 -19
-30 0 0 11 -8 15 -27 13 -27 -3 -28 -2 -28 47 0 43 -5 56 -34 88 -19 20 -39
33 -45 30 -12 -8 -60 -14 -123 -16 -24 -1 -43 -5 -43 -9 0 -5 -9 -8 -20 -8
-15 0 -20 7 -20 29 0 17 -3 32 -7 34 -5 3 -39 7 -78 10 l-70 5 70 -11z"/>
<path d="M989 2284 c-14 -17 -3 -45 22 -52 8 -2 5 3 -6 11 -17 14 -18 19 -7
36 15 25 10 28 -9 5z"/>
<path d="M1044 2203 c1 -26 4 -28 36 -25 19 2 37 6 40 9 3 3 -12 3 -33 1 -36
-4 -38 -3 -32 19 3 13 1 23 -3 23 -5 0 -9 -12 -8 -27z"/>
<path d="M1822 2145 c-17 -37 -14 -45 4 -12 19 34 34 26 34 -18 0 -25 -5 -35
-20 -40 -20 -6 -46 -42 -37 -52 3 -2 8 4 11 14 3 10 16 23 28 28 24 11 33 42
24 81 -8 31 -30 31 -44 -1z"/>
<path d="M1620 2136 c-6 -6 -10 -17 -9 -25 0 -10 4 -7 10 7 6 16 14 22 26 18
10 -3 32 -2 48 3 27 8 24 8 -18 7 -26 0 -52 -5 -57 -10z"/>
<path d="M1742 2120 c9 -14 26 -26 39 -27 19 -1 20 -1 4 4 -11 2 -28 15 -39
26 l-18 22 14 -25z"/>
<path d="M3274 2110 c21 -10 45 -28 52 -39 17 -24 92 -50 119 -41 14 5 4 9
-34 14 -40 5 -60 14 -79 35 -29 30 -63 51 -83 51 -7 0 4 -9 25 -20z"/>
<path d="M4104 2075 c-19 -45 -28 -56 -42 -50 -13 5 -14 3 -5 -6 16 -16 33 -3
55 47 10 24 21 44 24 44 3 0 21 -12 40 -26 48 -37 43 -24 -6 15 l-41 32 -25
-56z"/>
<path d="M4280 2107 c0 -35 -23 -62 -46 -53 -15 6 -17 5 -6 -6 18 -18 44 0 69
50 1 2 12 -2 25 -9 l23 -12 -24 27 c-30 32 -41 33 -41 3z"/>
<path d="M2275 2090 c-16 -16 -37 -30 -48 -30 -34 0 -56 -20 -78 -70 -16 -38
-27 -50 -50 -55 -39 -9 -50 1 -47 40 2 40 -16 65 -47 65 -13 0 -25 7 -29 15
-8 21 -24 18 -31 -6 -6 -17 -13 -20 -35 -15 -23 4 -34 0 -54 -24 -22 -27 -26
-29 -35 -13 -5 10 -12 15 -16 12 -3 -4 2 -14 11 -24 17 -16 19 -16 37 9 14 20
27 26 57 26 31 0 39 4 44 22 5 21 7 21 18 6 7 -9 24 -18 38 -20 22 -3 26 -9
32 -57 5 -48 4 -56 -15 -72 -22 -18 -22 -18 -3 -36 19 -17 19 -17 6 0 -12 17
-11 21 10 38 14 10 37 19 52 19 19 0 33 9 45 28 10 15 21 30 26 33 5 3 8 8 6
10 -1 2 0 14 3 26 4 15 16 24 41 28 21 4 48 21 68 41 18 19 31 34 28 34 -3 0
-18 -13 -34 -30z"/>
<path d="M762 2098 c-7 -7 -12 -24 -12 -39 0 -19 -6 -28 -22 -33 l-23 -6 23
-19 c12 -11 22 -30 22 -44 0 -13 7 -30 15 -37 27 -22 11 -33 -48 -33 -31 1
-60 -3 -63 -9 -3 -5 -13 -4 -22 4 -15 12 -16 11 -4 -4 11 -14 19 -15 40 -7 15
6 43 9 64 7 49 -3 68 14 45 40 -9 10 -17 30 -17 44 0 15 -9 32 -22 41 l-23 16
25 0 c22 1 25 5 25 38 0 21 5 38 13 41 10 3 13 -4 11 -24 -4 -38 6 -53 31 -47
12 3 20 13 19 27 0 19 -1 19 -8 3 -11 -28 -25 -21 -31 14 -6 36 -19 46 -38 27z"/>
<path d="M3165 2093 c-23 -13 -35 -14 -59 -5 -16 6 -33 9 -38 6 -4 -3 -41 -12
-81 -19 l-72 -14 65 5 c35 3 71 9 80 14 9 5 22 5 31 -1 23 -15 62 -10 94 11
36 24 22 26 -20 3z"/>
<path d="M1630 2076 c13 -17 11 -21 -23 -50 -20 -17 -37 -37 -37 -43 0 -7 -10
-13 -23 -13 -13 0 -32 -7 -43 -16 -18 -15 -18 -15 3 -5 12 6 31 11 43 11 12 0
24 9 29 23 5 12 20 29 34 36 34 18 42 41 20 60 -16 15 -16 15 -3 -3z"/>
<path d="M855 2056 c4 -31 23 -66 36 -66 6 0 3 7 -5 16 -9 8 -16 26 -16 39 0
13 -4 26 -9 29 -4 3 -7 -5 -6 -18z"/>
<path d="M4379 2044 c25 -20 31 -34 33 -67 l1 -42 4 39 c4 32 -1 44 -23 67
-15 16 -32 29 -37 29 -5 0 5 -12 22 -26z"/>
<path d="M920 2010 c-11 -8 -8 -9 12 -4 19 4 29 1 36 -12 9 -16 13 -17 35 -5
18 10 30 10 45 2 11 -6 31 -10 44 -10 20 1 20 2 3 6 -11 2 -32 9 -48 15 -20 8
-31 7 -43 -3 -14 -11 -18 -11 -29 4 -14 19 -33 22 -55 7z"/>
<path d="M4856 1985 c16 -40 18 -83 4 -120 -19 -50 -14 -147 10 -203 13 -29
24 -51 27 -49 2 2 -6 26 -18 53 -21 50 -22 103 -3 245 4 33 1 56 -10 78 -22
42 -29 40 -10 -4z"/>
<path d="M540 1996 c-13 -16 -4 -122 11 -131 4 -3 15 5 24 19 11 16 23 23 33
19 15 -4 15 -3 2 6 -23 16 -29 14 -42 -16 -11 -27 -11 -26 -21 27 -6 38 -6 60
2 72 13 22 8 24 -9 4z"/>
<path d="M1123 1993 c4 -3 2 -12 -4 -19 -19 -23 -3 -45 27 -38 22 6 25 4 21
-12 -3 -11 -2 -37 3 -59 7 -36 8 -35 6 20 -2 56 -4 60 -27 61 -24 0 -26 5 -14
37 5 11 2 17 -6 17 -7 0 -9 -3 -6 -7z"/>
<path d="M3464 1989 c-3 -6 -2 -15 3 -20 5 -5 9 -1 9 11 0 23 -2 24 -12 9z"/>
<path d="M3486 1938 c3 -4 31 -8 63 -8 31 0 61 -3 67 -7 5 -5 5 -3 -1 3 -11
13 -137 25 -129 12z"/>
<path d="M1350 1910 c-24 -21 -29 -30 -17 -30 9 0 17 -7 17 -17 0 -9 3 -13 8
-9 10 11 9 30 -2 38 -6 4 1 15 15 27 13 11 21 20 18 21 -3 0 -21 -13 -39 -30z"/>
<path d="M3803 1929 c-6 -6 -47 -15 -90 -19 l-78 -8 77 1 c58 2 82 7 95 20 9
9 15 17 12 17 -3 0 -10 -5 -16 -11z"/>
<path d="M1418 1923 c19 -4 21 -7 11 -19 -11 -13 -8 -14 16 -8 23 6 27 4 22
-9 -6 -15 16 -31 27 -20 13 13 6 45 -8 40 -8 -3 -22 1 -33 8 -10 8 -27 14 -38
13 -17 -1 -16 -1 3 -5z m69 -45 c-3 -8 -6 -5 -6 6 -1 11 2 17 5 13 3 -3 4 -12
1 -19z"/>
<path d="M4382 1905 c-6 -14 -10 -25 -8 -25 2 0 11 11 20 25 9 14 13 25 8 25
-5 0 -14 -11 -20 -25z"/>
<path d="M1233 1836 c7 -46 6 -46 -16 -36 -21 11 -21 10 -3 -4 27 -21 38 -10
30 30 -7 36 10 49 19 14 5 -18 8 -19 31 -9 14 7 26 16 26 21 0 4 -10 3 -21 -4
-17 -11 -23 -11 -26 0 -3 7 -14 17 -25 23 -20 11 -21 10 -15 -35z"/>
<path d="M4361 1845 c-1 -43 7 -51 93 -94 42 -22 72 -33 66 -26 -6 7 -38 25
-73 40 -34 15 -64 29 -66 31 -2 2 -7 21 -11 41 -7 35 -8 36 -9 8z"/>
<path d="M2040 1830 c0 -5 -13 -10 -30 -10 -35 0 -40 -22 -12 -58 16 -20 20
-21 51 -10 31 12 35 11 48 -9 9 -13 25 -22 37 -22 19 1 19 2 2 6 -11 3 -27 15
-37 27 -16 19 -21 20 -50 9 -28 -11 -34 -10 -45 5 -22 28 -16 42 16 42 20 0
30 5 30 15 0 8 -2 15 -5 15 -3 0 -5 -4 -5 -10z"/>
<path d="M1160 1805 c-7 -8 -9 -22 -6 -31 7 -18 38 -15 42 4 1 7 0 8 -3 2 -7
-15 -33 -12 -33 3 0 7 5 18 12 25 7 7 9 12 6 12 -3 0 -11 -7 -18 -15z"/>
<path d="M3220 1685 c0 -105 0 -105 24 -105 23 0 25 4 28 53 3 44 6 52 23 52
17 0 20 -8 23 -52 3 -49 5 -53 28 -53 23 0 24 3 24 64 0 75 -13 91 -65 83 -34
-6 -35 -5 -35 29 0 30 -3 34 -25 34 l-25 0 0 -105z"/>
<path d="M3410 1770 c0 -15 7 -20 25 -20 18 0 25 5 25 20 0 15 -7 20 -25 20
-18 0 -25 -5 -25 -20z"/>
<path d="M3063 1770 c-30 -12 -45 -45 -47 -101 -1 -45 1 -49 35 -69 61 -34
139 -24 139 17 0 20 -3 24 -17 18 -75 -33 -131 21 -87 84 14 20 22 22 60 16
42 -6 44 -5 44 18 0 22 -4 24 -52 25 -29 0 -63 -3 -75 -8z"/>
<path d="M3498 1748 c-3 -54 5 -144 14 -155 15 -19 88 -17 88 2 0 8 -9 15 -20
15 -17 0 -20 7 -20 45 0 33 4 45 15 45 8 0 15 6 15 14 0 8 -7 16 -15 20 -8 3
-15 12 -15 21 0 10 -10 15 -30 15 -24 0 -30 -5 -32 -22z"/>
<path d="M3621 1747 c-10 -25 -1 -133 12 -155 12 -18 87 -16 87 3 0 8 -9 15
-20 15 -17 0 -20 7 -20 45 0 38 3 45 20 45 11 0 20 7 20 15 0 8 -9 15 -20 15
-13 0 -20 7 -20 20 0 30 -48 27 -59 -3z"/>
<path d="M3415 1731 c-3 -2 -5 -38 -5 -78 l0 -74 27 3 c22 2 27 8 26 31 -1 15
-1 49 -2 75 -1 41 -4 48 -21 48 -12 0 -23 -2 -25 -5z"/>
<path d="M3762 1714 c-29 -20 -31 -85 -2 -114 25 -25 81 -26 115 -4 20 13 25
25 25 60 0 51 -25 74 -80 74 -20 0 -46 -7 -58 -16z m76 -26 c19 -19 14 -56 -8
-68 -28 -15 -40 -5 -40 34 0 46 21 61 48 34z"/>
<path d="M3930 1654 c0 -72 1 -74 25 -74 23 0 25 3 25 50 0 48 1 51 30 57 20
3 30 12 30 23 0 14 -10 17 -55 18 l-55 0 0 -74z"/>
<path d="M2142 1680 c-8 -17 -11 -38 -7 -48 6 -15 8 -15 22 6 9 12 23 22 32
23 11 0 12 2 3 6 -7 3 -22 -3 -33 -13 -15 -14 -19 -14 -19 -3 0 8 5 20 11 26
6 6 10 16 8 22 -2 6 -10 -3 -17 -19z"/>
<path d="M4560 1663 c11 -22 20 -57 20 -83 0 -28 3 -40 9 -32 11 18 -4 95 -25
127 -24 37 -27 30 -4 -12z"/>
<path d="M2217 1658 c5 -10 142 -9 165 0 10 4 -25 7 -76 7 -52 0 -92 -3 -89
-7z"/>
<path d="M2414 1662 c5 -7 -2 -44 -15 -82 -19 -60 -21 -75 -11 -122 l11 -53
-6 52 c-3 38 1 72 17 124 18 56 20 73 10 82 -10 9 -11 9 -6 -1z"/>
<path d="M4906 1585 c4 -11 9 -33 12 -50 2 -16 16 -42 30 -57 14 -16 20 -28
14 -28 -7 0 -20 9 -30 21 -9 11 -26 25 -37 31 -11 6 -3 -6 18 -26 34 -32 67
-47 67 -30 0 3 -11 19 -25 36 -14 16 -25 39 -25 51 -1 12 -8 33 -16 47 -10 16
-13 18 -8 5z"/>
<path d="M4555 1520 c-13 -6 -15 -9 -5 -9 8 0 22 4 30 9 18 12 2 12 -25 0z"/>
<path d="M4503 1503 c-7 -2 -13 -17 -13 -33 0 -15 -7 -33 -15 -40 -8 -7 -15
-16 -15 -21 0 -5 9 -1 20 8 11 10 20 30 20 45 0 15 8 31 18 37 17 11 7 13 -15
4z"/>
<path d="M4810 1498 c-25 -5 -67 -7 -95 -4 -42 4 -45 3 -20 -5 34 -11 165 -2
165 12 0 5 -1 9 -2 8 -2 -1 -23 -5 -48 -11z"/>
<path d="M4593 1490 c2 -8 14 -16 28 -17 19 -1 20 -1 4 4 -11 3 -24 10 -28 17
-6 7 -7 6 -4 -4z"/>
<path d="M2390 1391 c0 -5 -3 -16 -6 -24 -3 -10 3 -16 20 -19 14 -3 23 -1 20
3 -3 5 -11 9 -19 9 -8 0 -11 7 -8 20 3 11 3 20 -1 20 -3 0 -6 -4 -6 -9z"/>
<path d="M4484 1384 c5 -28 -12 -54 -35 -54 -11 0 -37 -9 -59 -20 -22 -11 -53
-20 -69 -20 -16 0 -33 -5 -37 -11 -3 -6 -15 -8 -27 -5 -12 3 -32 -3 -49 -16
-27 -19 -28 -21 -11 -34 10 -7 23 -13 28 -13 6 0 2 4 -8 10 -18 10 -18 12 -1
30 11 12 24 17 36 13 10 -3 24 -1 31 4 7 5 28 12 47 15 105 16 195 76 163 108
-9 9 -11 7 -9 -7z"/>
<path d="M2417 1308 c19 -18 24 -19 38 -8 13 11 18 10 28 -3 9 -12 16 -14 27
-6 13 9 13 10 0 6 -8 -2 -20 3 -26 12 -10 13 -14 13 -29 1 -15 -12 -19 -12
-30 3 -7 9 -16 17 -21 17 -5 0 1 -10 13 -22z"/>
<path d="M2535 1284 c60 -54 62 -55 88 -45 32 13 57 -10 37 -34 -6 -8 -10 -22
-7 -32 4 -15 5 -15 6 2 0 12 6 26 11 31 13 13 4 40 -16 48 -8 3 -25 1 -38 -4
-18 -7 -28 -5 -37 6 -7 8 -22 20 -33 26 -12 6 -16 6 -11 2z"/>
<path d="M3779 1263 c-12 -16 -12 -17 1 -6 9 7 45 14 80 16 l65 3 -66 2 c-53
2 -69 -2 -80 -15z"/>
<path d="M3950 1240 c25 -48 44 -58 69 -36 9 9 39 19 65 22 46 7 48 6 41 -14
-3 -12 -2 -22 3 -22 5 0 9 10 8 23 -1 19 -6 22 -49 22 -34 1 -53 -5 -64 -17
-25 -27 -41 -22 -63 22 -11 22 -23 40 -25 40 -3 0 4 -18 15 -40z"/>
<path d="M3783 1229 c14 -8 15 -14 6 -30 -5 -11 -9 -34 -7 -52 3 -27 -1 -32
-22 -37 -42 -9 -78 -39 -82 -70 -2 -16 -1 -27 4 -24 4 3 8 13 8 23 0 24 41 61
67 61 12 0 31 13 42 29 25 35 26 42 6 35 -18 -7 -19 9 -4 38 11 21 -1 38 -26
38 -5 -1 -2 -5 8 -11z"/>
<path d="M4153 1190 c2 -9 14 -14 27 -12 13 1 27 -3 31 -9 5 -8 13 -7 30 5 13
9 18 16 12 16 -7 0 -15 -5 -18 -10 -5 -8 -11 -7 -21 1 -7 6 -21 8 -31 5 -9 -4
-20 -1 -25 6 -7 10 -8 9 -5 -2z"/>
<path d="M2636 1141 c-4 -6 -2 -11 3 -11 19 0 12 -30 -6 -30 -25 -1 -56 -46
-48 -69 3 -11 1 -22 -5 -26 -5 -3 -10 -14 -10 -24 0 -10 -17 -29 -37 -42 -39
-25 -46 -50 -28 -92 6 -13 1 -18 -22 -23 -27 -5 -53 -40 -53 -70 0 -18 17 -26
26 -13 4 8 3 9 -4 5 -16 -10 -15 25 2 47 7 9 20 17 28 17 27 0 41 26 28 50
-16 30 -4 55 35 79 21 12 35 28 35 40 0 11 5 23 10 26 6 4 10 14 8 23 -3 24
24 62 44 62 19 0 24 26 9 49 -6 9 -11 10 -15 2z"/>
<path d="M3545 1030 c-3 -5 -12 -7 -20 -3 -9 3 -15 -1 -15 -8 0 -8 -7 -27 -15
-43 -9 -16 -13 -31 -10 -34 3 -3 12 13 21 35 10 25 21 40 29 37 7 -3 15 2 18
10 7 18 2 22 -8 6z"/>
<path d="M3610 996 c6 -6 18 -5 32 1 21 10 21 10 -9 9 -19 -1 -28 -5 -23 -10z"/>
<path d="M3067 934 c-3 -16 -2 -33 3 -38 4 -4 7 0 7 10 -1 10 3 19 8 19 6 0
17 4 24 9 8 6 39 10 68 11 51 2 53 2 37 -16 -21 -23 -10 -39 25 -39 21 0 31
-7 42 -31 13 -29 18 -32 75 -35 66 -4 90 8 81 43 -4 14 -5 14 -6 -4 -1 -31
-13 -35 -80 -27 -56 6 -60 9 -66 35 -6 25 -11 29 -41 29 -36 0 -43 10 -19 30
8 7 13 16 10 20 -7 12 -112 5 -129 -9 -12 -10 -16 -9 -24 5 -8 14 -10 12 -15
-12z"/>
<path d="M2935 934 c-14 -11 -33 -14 -62 -10 -31 4 -42 2 -47 -10 -9 -24 -7
-31 4 -12 8 12 19 15 48 11 28 -4 43 0 62 16 29 24 25 28 -5 5z"/>
<path d="M2998 943 c7 -3 16 -2 19 1 4 3 -2 6 -13 5 -11 0 -14 -3 -6 -6z"/>
<path d="M3106 895 c4 -8 10 -15 15 -15 4 0 6 7 3 15 -4 8 -10 15 -15 15 -4 0
-6 -7 -3 -15z"/>
<path d="M2746 872 c-2 -4 14 -8 37 -10 47 -3 47 2 0 11 -18 4 -34 3 -37 -1z"/>
<path d="M2711 837 c-6 -8 -8 -17 -4 -21 4 -3 8 -12 9 -19 1 -7 5 -20 9 -29 4
-11 3 -18 -4 -18 -17 0 -51 -86 -51 -130 0 -29 -8 -48 -30 -73 -16 -19 -30
-46 -30 -59 0 -31 -9 -41 -25 -28 -9 7 -17 5 -26 -7 -13 -16 -12 -17 2 -5 14
10 18 10 23 -4 10 -26 36 2 36 38 0 19 11 43 30 65 22 25 30 44 30 72 0 44 25
112 46 124 15 8 10 51 -8 74 -6 7 -3 15 9 22 10 6 13 11 7 11 -6 0 -17 -6 -23
-13z"/>
<path d="M2340 751 c0 -5 -7 -17 -16 -25 -9 -9 -17 -22 -18 -29 -4 -27 -19
-37 -50 -35 -45 3 -56 -7 -57 -55 -1 -23 -4 -53 -8 -67 -4 -14 -2 -42 3 -62 8
-31 7 -40 -8 -57 -24 -27 -27 -84 -4 -89 12 -2 22 6 30 25 7 15 17 31 22 35
14 10 53 -8 100 -46 52 -43 86 -52 123 -33 15 9 36 18 46 21 10 3 17 15 17 31
0 15 6 25 14 25 8 0 17 7 20 16 8 21 8 24 -5 24 -5 0 -8 -4 -4 -9 3 -6 -4 -15
-15 -21 -12 -6 -20 -21 -20 -35 0 -17 -6 -25 -17 -25 -10 0 -27 -7 -37 -15
-22 -17 -75 -12 -91 9 -5 7 -17 15 -25 19 -8 4 -33 21 -55 37 l-40 29 -22 -25
c-13 -14 -23 -32 -23 -40 0 -8 -7 -14 -15 -14 -20 0 -19 16 6 68 17 35 20 50
12 75 -5 18 -6 43 -2 57 4 14 7 44 8 68 1 41 2 42 35 42 51 0 66 9 83 51 8 22
22 39 30 39 8 0 11 5 8 10 -8 13 -25 13 -25 1z"/>
<path d="M2380 726 c0 -3 9 -10 20 -16 11 -6 20 -8 20 -6 0 3 -9 10 -20 16
-11 6 -20 8 -20 6z"/>
<path d="M2439 703 c-13 -16 -12 -17 4 -4 16 13 21 21 13 21 -2 0 -10 -8 -17
-17z"/>
</g>
</svg>
